<svg xmlns="http://www.w3.org/2000/svg" xmlns:xlink="http://www.w3.org/1999/xlink" viewBox="0 0 87.14 289.55"><defs><style>.cls-1,.cls-19{fill:none;}.cls-2{isolation:isolate;}.cls-3{clip-path:url(#clip-path);}.cls-4{fill:#d16247;}.cls-5{opacity:0.6;}.cls-10,.cls-12,.cls-14,.cls-32,.cls-5{mix-blend-mode:multiply;}.cls-6{clip-path:url(#clip-path-3);}.cls-7{clip-path:url(#clip-path-4);}.cls-8{fill:#006591;}.cls-9{fill:#087e8b;}.cls-10{opacity:0.46;}.cls-11{clip-path:url(#clip-path-5);}.cls-12{opacity:0.19;}.cls-13{clip-path:url(#clip-path-6);}.cls-14{opacity:0.29;}.cls-15{clip-path:url(#clip-path-7);}.cls-16{clip-path:url(#clip-path-8);}.cls-17{fill:#fff;}.cls-18{fill:#0b3954;}.cls-19{stroke:#0b3954;stroke-miterlimit:10;}.cls-20{opacity:0.24;}.cls-21{clip-path:url(#clip-path-9);}.cls-22{clip-path:url(#clip-path-10);}.cls-23{opacity:0.5;}.cls-24{clip-path:url(#clip-path-11);}.cls-25{clip-path:url(#clip-path-12);}.cls-26{clip-path:url(#clip-path-13);}.cls-27{clip-path:url(#clip-path-14);}.cls-28{clip-path:url(#clip-path-15);}.cls-29{clip-path:url(#clip-path-16);}.cls-30{opacity:0.3;}.cls-31{clip-path:url(#clip-path-17);}.cls-32{opacity:0.26;}.cls-33{clip-path:url(#clip-path-18);}.cls-34{fill:#bfd7ea;}</style><clipPath id="clip-path" transform="translate(-212.71 -119.16)"><rect class="cls-1" width="500" height="500"/></clipPath><clipPath id="clip-path-3" transform="translate(-212.71 -119.16)"><rect class="cls-1" x="219.3" y="151.41" width="5.92" height="9.17"/></clipPath><clipPath id="clip-path-4" transform="translate(-212.71 -119.16)"><rect class="cls-1" x="251.76" y="214.54" width="25.26" height="35.89"/></clipPath><clipPath id="clip-path-5" transform="translate(-212.71 -119.16)"><rect class="cls-1" x="240.7" y="299.97" width="39.88" height="90.78"/></clipPath><clipPath id="clip-path-6" transform="translate(-212.71 -119.16)"><rect class="cls-1" x="217.19" y="299.97" width="56.81" height="23.9"/></clipPath><clipPath id="clip-path-7" transform="translate(-212.71 -119.16)"><rect class="cls-1" x="212.71" y="215.15" width="59.9" height="76.48"/></clipPath><clipPath id="clip-path-8" transform="translate(-212.71 -119.16)"><rect class="cls-1" x="224.05" y="156" width="27.63" height="35.66"/></clipPath><clipPath id="clip-path-9" transform="translate(-212.71 -119.16)"><rect class="cls-1" x="235.19" y="316.29" width="0.83" height="91.24"/></clipPath><clipPath id="clip-path-10" transform="translate(-212.71 -119.16)"><rect class="cls-1" x="215.26" y="204.34" width="35.77" height="42.56"/></clipPath><clipPath id="clip-path-11" transform="translate(-212.71 -119.16)"><rect class="cls-1" x="266.07" y="232.61" width="15.42" height="24.91"/></clipPath><clipPath id="clip-path-12" transform="translate(-212.71 -119.16)"><rect class="cls-1" x="280.12" y="240.76" width="7.75" height="11.7"/></clipPath><clipPath id="clip-path-13" transform="translate(-212.71 -119.16)"><rect class="cls-1" x="267.3" y="237.12" width="8.25" height="2.95"/></clipPath><clipPath id="clip-path-14" transform="translate(-212.71 -119.16)"><rect class="cls-1" x="252.45" y="194.26" width="19.31" height="32.21"/></clipPath><clipPath id="clip-path-15" transform="translate(-212.71 -119.16)"><rect class="cls-1" x="222.76" y="289.42" width="30.18" height="16.51"/></clipPath><clipPath id="clip-path-16" transform="translate(-212.71 -119.16)"><rect class="cls-1" x="242.33" y="293.81" width="19.72" height="7.47"/></clipPath><clipPath id="clip-path-17" transform="translate(-212.71 -119.16)"><rect class="cls-1" x="233.22" y="198.45" width="20.29" height="2.81"/></clipPath><clipPath id="clip-path-18" transform="translate(-212.71 -119.16)"><rect class="cls-1" x="229" y="161.97" width="38.14" height="23.25"/></clipPath></defs><title>doctor_male</title><g class="cls-2"><g id="Layer_1" data-name="Layer 1"><g class="cls-3"><g class="cls-3"><path class="cls-4" d="M221.9,148.1s-5-2.22-5,2.85,2,13.54,7.85,13.41,2-13.7-2.84-16.26" transform="translate(-212.71 -119.16)"/><g class="cls-5"><g class="cls-6"><path class="cls-4" d="M222.05,151.68s-2.71-1.22-2.75,1.56,1.1,7.42,4.3,7.35,1.11-7.51-1.55-8.91" transform="translate(-212.71 -119.16)"/></g></g><path class="cls-4" d="M251.81,231.54S274.5,255.16,287,251.92c0,0,5.1-3.71,1.85-8.34s-24.08-29.17-24.08-29.17-13.89,7.41-13,17.13" transform="translate(-212.71 -119.16)"/><g class="cls-5"><g class="cls-7"><path class="cls-4" d="M264.53,214.54c-1.84,1-13.58,8-12.72,17,0,0,13.34,13.89,25.21,18.9-3.57-12.21-6.6-24.61-12.49-35.9" transform="translate(-212.71 -119.16)"/></g></g><path class="cls-8" d="M252.87,194.68s10.46,4,20.58,24.29l-10.12,8.44s-14.51-23.29-10.46-32.73" transform="translate(-212.71 -119.16)"/><path class="cls-9" d="M268.33,301.48l31.52,107.23H265.49L240.7,318s12.4-24.24,27.63-16.53" transform="translate(-212.71 -119.16)"/><g class="cls-10"><g class="cls-11"><path class="cls-9" d="M265.7,377.58q7.26-17.29,14.88-34.42l-12.25-41.68C253.1,293.77,240.7,318,240.7,318l19.88,72.74c1.71-4.42,3.31-8.87,5.12-13.17" transform="translate(-212.71 -119.16)"/></g></g><path class="cls-9" d="M217.62,302.8s-1.89,17,2.2,30.82L224.23,408l30.56.36,5-103.43s-30.56-8.86-42.21-2.13" transform="translate(-212.71 -119.16)"/><g class="cls-12"><g class="cls-13"><path class="cls-9" d="M274,320.78l-5.67-19.3c-5.65-2.86-10.91-1.32-15.29,1.75-9.69-2.19-27.22-5.16-35.42-.43a102.16,102.16,0,0,0,0,19.2c18.52,2.54,38,2.82,56.35-1.22" transform="translate(-212.71 -119.16)"/></g></g><path class="cls-8" d="M223.55,193s-11.88,7.43-10.76,31.22.37,88.85.37,88.85,49,7.06,60.13-2.23c0,0-1.86-114.87-22.64-116.73Z" transform="translate(-212.71 -119.16)"/><g class="cls-14"><g class="cls-15"><path class="cls-9" d="M244.72,251.13c-12.66-9.88-21.89-23.36-31.7-36a60.16,60.16,0,0,0-.23,9.07c.13,2.76.23,6.09.31,9.8,14.56,15.39,30.52,29.39,45.69,44.18,4.6,4.48,9.19,9,13.82,13.43-.38-7.95-1-17.69-1.84-27.91-9.53-1.91-18.74-6.87-26-12.59" transform="translate(-212.71 -119.16)"/></g></g><path class="cls-4" d="M224.05,158.28s3.19,33.65,3.19,36.84S251,202.56,251,196.54c0-1.77.71-25.86.71-25.86s-23.38-21.61-27.63-12.4" transform="translate(-212.71 -119.16)"/><g class="cls-5"><g class="cls-16"><path class="cls-4" d="M251.1,191.17c.2-7.61.58-20.49.58-20.49s-23.38-21.61-27.63-12.4c0,0,.86,9.05,1.68,18.21,6.58,9.12,16.64,17.28,25.37,14.68" transform="translate(-212.71 -119.16)"/></g></g><path class="cls-17" d="M225.82,193s17,7.43,25.86,1.06c0,0,2.12,1.41,1.41,3.19s5,17.71,5,17.71l-24.79-14.53s-11-1.41-7.44-7.43" transform="translate(-212.71 -119.16)"/><path class="cls-4" d="M235.87,244.65s22.69,23.62,35.19,20.37c0,0,5.1-3.7,1.85-8.33s-24.08-29.18-24.08-29.18-13.89,7.41-13,17.14" transform="translate(-212.71 -119.16)"/><path class="cls-4" d="M271.06,265c2.22,0,16.4-23.85,16.4-23.85s.35-7.79-2.48-8.5-3.9.35-3.9.35l-17,14.88c-1.42-.71-6.22,16.89,7,17.12" transform="translate(-212.71 -119.16)"/><path class="cls-4" d="M266.86,248.08s17.05,6.9,21.3,3.71,1.06-8.85-3.19-11.33-19.89-.46-19.89-.46-1.45,5.79,1.78,8.08" transform="translate(-212.71 -119.16)"/><path class="cls-8" d="M215.9,207.52s-11.69,20.54,18.07,39l16.65-19.83s-15.92-32.1-34.72-19.13" transform="translate(-212.71 -119.16)"/><path class="cls-4" d="M262.94,144.08c0-.58.07-1.15.07-1.74a22,22,0,1,0-41.26,10.49c.95,2.25,3.06,7.22,5.41,12.54a2.74,2.74,0,0,1,2.92,1.65c3.45,7,9.08,16.39,17.24,16.84,1.6-.22,3.26-.49,4.9-.78l.1,0a3.22,3.22,0,0,1,1.24-.22c5.61-1.05,10.7-2.33,11.93-2.94,2.11-1.06-.88-24.11-2.55-35.81" transform="translate(-212.71 -119.16)"/><path class="cls-18" d="M220.86,150.84a15.7,15.7,0,0,1,4.61,3.9s-1.42-23.73,13.1-24.8c0,0,9.92,6,14.53-1.41,0,0,7.79-1.06,9.56,11,0,0,3.41-22.41-24.8-20.19,0,0-31.62,5-17,31.52" transform="translate(-212.71 -119.16)"/><path class="cls-18" d="M231.85,143.76s10.27-4.25,14.52-2.48l.36,2.48-14.53,2.83Z" transform="translate(-212.71 -119.16)"/><polygon class="cls-18" points="45.12 20.43 45.48 23.26 50.43 22.91 50.08 20.08 45.12 20.43"/><line class="cls-19" x1="43.22" y1="23.89" x2="46.4" y2="34.51"/><path class="cls-17" d="M222.09,151.89s5.82,3.6,7.51,10c0,0,2.11-7.54-7.15-13.94,0,0-2.41,1.36-.36,3.9" transform="translate(-212.71 -119.16)"/><g class="cls-20"><g class="cls-21"><rect class="cls-18" x="22.48" y="197.13" width="0.83" height="91.24"/></g></g><g class="cls-20"><g class="cls-22"><path class="cls-18" d="M251,226.47c-14.32-29.65-33.19-21-33.38-20.88a.41.41,0,0,0-.19.55.41.41,0,0,0,.55.19c.17-.08,16.31-7.49,29.86,15.94l-18.21,21.1c-10.16-7-13.52-15.28-13.56-15.37a.4.4,0,0,0-.53-.23.41.41,0,0,0-.24.53c0,.1,3.49,8.68,13.94,15.81a.37.37,0,0,0,.13.2.39.39,0,0,0,.27.11l.05,0a45.12,45.12,0,0,0,4.09,2.45.49.49,0,0,0,.2.05.4.4,0,0,0,.36-.22.41.41,0,0,0-.17-.56c-1.37-.73-2.65-1.5-3.84-2.28l18-20.81c.66,1.19,1.32,2.45,2,3.8a.43.43,0,0,0,.38.23.39.39,0,0,0,.18,0,.42.42,0,0,0,.19-.55" transform="translate(-212.71 -119.16)"/></g></g><path class="cls-17" d="M224.74,164.36s4.84,10.41,8.56,12.77l-1-3.71-6.07-10.8Z" transform="translate(-212.71 -119.16)"/><g class="cls-23"><g class="cls-24"><path class="cls-18" d="M268.05,257.51h-.12a.41.41,0,0,1-.27-.52c1.28-4.16-1.42-8.88-1.45-8.93l-.14-.24.18-.22c.42-.53,10.43-13,14.66-14.94a.41.41,0,0,1,.55.2.42.42,0,0,1-.21.55c-3.75,1.71-12.82,12.8-14.18,14.49.57,1.08,2.6,5.35,1.38,9.33a.42.42,0,0,1-.4.29" transform="translate(-212.71 -119.16)"/></g></g><g class="cls-23"><g class="cls-25"><path class="cls-18" d="M280.54,252.45a.46.46,0,0,1-.23-.06.41.41,0,0,1-.12-.57L287.1,241a.42.42,0,0,1,.58-.13.41.41,0,0,1,.12.57l-6.91,10.87a.41.41,0,0,1-.35.19" transform="translate(-212.71 -119.16)"/></g></g><g class="cls-23"><g class="cls-26"><path class="cls-18" d="M267.72,240.06a.42.42,0,0,1-.4-.3.41.41,0,0,1,.28-.51l7.42-2.12a.43.43,0,0,1,.52.29.42.42,0,0,1-.29.51l-7.42,2.12h-.11" transform="translate(-212.71 -119.16)"/></g></g><g class="cls-20"><g class="cls-27"><path class="cls-18" d="M271.62,216.26a.43.43,0,0,0,.06-.58.38.38,0,0,0-.55-.07l-6.08,5.14c-2.58-13.42-11.79-26.18-11.89-26.33a.38.38,0,0,0-.55-.07.42.42,0,0,0-.08.58c.12.16,11.75,16.26,12.38,31.15a.4.4,0,0,0,.39.39h0a.4.4,0,0,0,.37-.43,34.47,34.47,0,0,0-.47-4.38h0Z" transform="translate(-212.71 -119.16)"/></g></g><g class="cls-20"><g class="cls-28"><path class="cls-18" d="M250.74,305.93c-10.71,0-27.11-15.11-27.85-15.8a.41.41,0,0,1,.56-.6c.19.17,18.86,17.39,29,15.42a.42.42,0,0,1,.49.33.42.42,0,0,1-.33.48,9.5,9.5,0,0,1-1.87.17" transform="translate(-212.71 -119.16)"/></g></g><g class="cls-20"><g class="cls-29"><path class="cls-18" d="M259.11,301.28c-8.1,0-16.25-6.44-16.62-6.74a.41.41,0,1,1,.51-.65c.1.08,10.08,8,18.56,6.33a.42.42,0,0,1,.16.82,14.4,14.4,0,0,1-2.61.24" transform="translate(-212.71 -119.16)"/></g></g><g class="cls-30"><g class="cls-31"><path class="cls-9" d="M241.92,201.26c-4.39,0-8.37-.38-8.7-.41l.08-.83c4.65.46,17.22,1.07,19.6-1.57l.61.55c-1.63,1.82-6.85,2.26-11.59,2.26" transform="translate(-212.71 -119.16)"/></g></g><path class="cls-17" d="M229,157.93s9.56,1.42,16.65-1.77,7.79-4.61,13.46-2.48,5.37-.32,5.37-.32,5.25,21.92,1,26.53-37.9,16.29-36.48-22" transform="translate(-212.71 -119.16)"/><g class="cls-32"><g class="cls-33"><path class="cls-9" d="M258.25,179.3c-7.5,2.06-15.61.56-21.34-4.78A33.1,33.1,0,0,1,229,162c1.05,33.35,32.4,22.35,36.49,17.92,1.13-1.22,1.58-3.66,1.65-6.58a19,19,0,0,1-8.89,6" transform="translate(-212.71 -119.16)"/></g></g><path class="cls-17" d="M263.62,248.44l0,0,.87.19A33.51,33.51,0,0,0,266,238.43l-2.05-.26c-.31-.06-.57-.1-.61-.12-.11-.71-.88-3.21-6.35-6.16-6.5-3.5-6.57-3.8-7.18-2.59s4.88,4.83,5.23,6.46c-.65-.14-1.24-.24-1.76-.31-2.86-.55-14.13-2.65-14.17-1.44-.06,1.38,1,2.46,11.73,3.67-.06.25-.14.52-.21.81-4.76-.89-13.51-2.38-13.53-1.31,0,1.45,1.16,2.62,12.89,4-.06.27-.12.54-.17.81-4.37-.78-11.43-1.9-11.46-.94-.05,1.34,1,2.4,11,3.58,0,.3-.07.58-.1.85-4.06-.7-9.71-1.53-9.74-.71,0,1.25.89,2.23,10.06,3.32,1.25.67,11.13.4,14.09.3" transform="translate(-212.71 -119.16)"/><path class="cls-18" d="M235.76,153.54a12,12,0,0,1,11.68-1.73s-6.64-5.84-11.68,1.73" transform="translate(-212.71 -119.16)"/><path class="cls-18" d="M263.34,146.81c-1.27.26-2.67,1.21-4.06,3.41a8.69,8.69,0,0,1,4.19-2c0-.47-.08-.95-.13-1.42" transform="translate(-212.71 -119.16)"/><path class="cls-18" d="M259.34,199.77a62.15,62.15,0,0,0-8-7.66v2.15c4.76,4,15.61,14.44,15.26,26.06a.83.83,0,0,0,.81.85.75.75,0,0,0,.15,0,.83.83,0,0,0,.7-.8c.19-6.51-2.9-13.64-8.93-20.6" transform="translate(-212.71 -119.16)"/><path class="cls-18" d="M271.46,221.15a3.39,3.39,0,1,1-3.87-2.82,3.39,3.39,0,0,1,3.87,2.82" transform="translate(-212.71 -119.16)"/><path class="cls-34" d="M269.84,221.41a1.75,1.75,0,1,1-2-1.46,1.75,1.75,0,0,1,2,1.46" transform="translate(-212.71 -119.16)"/><path class="cls-18" d="M259.81,224.39a1.71,1.71,0,0,0-1.16.45c-1.83-.67-3.74-1.4-5.68-2.24a17.21,17.21,0,0,0-2.73-8.83c-6.21-9.76-20.71-12.53-22.43-12.83a17.43,17.43,0,0,1-.87-10.45.83.83,0,0,0-1.58-.51c-.07.23-1.8,5.75,1.53,13.1,3.7,8.15,11.92,15.06,24.43,20.61a20.54,20.54,0,0,1-.51,4.16h-.05a1.75,1.75,0,1,0,1.75,1.75,1.66,1.66,0,0,0-.22-.83,23.8,23.8,0,0,0,.67-4.36c1.64.69,3.35,1.35,5.12,2a1.75,1.75,0,1,0,1.73-2m-31.22-21.6c3.73.82,15.19,3.91,20.26,11.87a15.62,15.62,0,0,1,2.41,7.18c-9.14-4.19-18.53-10.36-22.67-19.05" transform="translate(-212.71 -119.16)"/></g></g></g></g></svg>