<svg xmlns="http://www.w3.org/2000/svg" xmlns:xlink="http://www.w3.org/1999/xlink" viewBox="0 0 164.36 467.3"><defs><style>.cls-1,.cls-7{fill:none;}.cls-2{isolation:isolate;}.cls-3{clip-path:url(#clip-path);}.cls-4{opacity:0.7;}.cls-5{clip-path:url(#clip-path-3);}.cls-6{fill:#fff;}.cls-7{stroke:#f7b19c;stroke-miterlimit:10;}.cls-8{fill:#f7b19c;}.cls-9{fill:#0c5068;}.cls-10{opacity:0.52;}.cls-10,.cls-14,.cls-16,.cls-25{mix-blend-mode:multiply;}.cls-11{clip-path:url(#clip-path-4);}.cls-12{fill:#006591;}.cls-13{fill:#2f4858;}.cls-14{opacity:0.44;}.cls-15{clip-path:url(#clip-path-5);}.cls-16{opacity:0.39;}.cls-17{clip-path:url(#clip-path-6);}.cls-18{opacity:0.56;}.cls-19{clip-path:url(#clip-path-7);}.cls-20{opacity:0.2;}.cls-21{clip-path:url(#clip-path-8);}.cls-22{fill:#33658a;}.cls-23{opacity:0.49;}.cls-24{clip-path:url(#clip-path-9);}.cls-25{opacity:0.38;}.cls-26{clip-path:url(#clip-path-10);}.cls-27{clip-path:url(#clip-path-11);}.cls-28{clip-path:url(#clip-path-12);}.cls-29{opacity:0.3;}.cls-30{clip-path:url(#clip-path-13);}</style><clipPath id="clip-path" transform="translate(-226.32 -27.89)"><rect class="cls-1" width="500" height="500"/></clipPath><clipPath id="clip-path-3" transform="translate(-226.32 -27.89)"><rect class="cls-1" x="282.51" y="305.6" width="34.94" height="94"/></clipPath><clipPath id="clip-path-4" transform="translate(-226.32 -27.89)"><rect class="cls-1" x="303" y="104.34" width="36.66" height="28.68"/></clipPath><clipPath id="clip-path-5" transform="translate(-226.32 -27.89)"><rect class="cls-1" x="266.99" y="352" width="36.92" height="140.6"/></clipPath><clipPath id="clip-path-6" transform="translate(-226.32 -27.89)"><rect class="cls-1" x="260.77" y="302.07" width="86.41" height="10.54"/></clipPath><clipPath id="clip-path-7" transform="translate(-226.32 -27.89)"><rect class="cls-1" x="294.95" y="75.7" width="4.12" height="12.72"/></clipPath><clipPath id="clip-path-8" transform="translate(-226.32 -27.89)"><rect class="cls-1" x="287.51" y="107.73" width="48.62" height="20.67"/></clipPath><clipPath id="clip-path-9" transform="translate(-226.32 -27.89)"><rect class="cls-1" x="280.06" y="141.19" width="12.6" height="79.9"/></clipPath><clipPath id="clip-path-10" transform="translate(-226.32 -27.89)"><rect class="cls-1" x="226.66" y="210.24" width="61.1" height="26.45"/></clipPath><clipPath id="clip-path-11" transform="translate(-226.32 -27.89)"><rect class="cls-1" x="334.07" y="143.23" width="15.67" height="76.23"/></clipPath><clipPath id="clip-path-12" transform="translate(-226.32 -27.89)"><rect class="cls-1" x="246.55" y="173.07" width="20.03" height="32.48"/></clipPath><clipPath id="clip-path-13" transform="translate(-226.32 -27.89)"><rect class="cls-1" x="354.8" y="189.61" width="19.74" height="100.01"/></clipPath></defs><title>doctor_female</title><g class="cls-2"><g id="Layer_1" data-name="Layer 1"><g class="cls-3"><g class="cls-3"><g class="cls-4"><g class="cls-5"><polygon class="cls-6" points="91.13 371.71 56.19 370.88 80.31 277.71 91.13 371.71"/></g></g><path class="cls-6" d="M355.92,149.3s39.81-7.1,34.23,142.81l0,23.27s-13.76,11.73-23.86.68-17.44-158.8-10.35-166.76" transform="translate(-226.32 -27.89)"/><path class="cls-7" d="M369.71,318.85s-2.08,8.35,5.7,8.35,12.45-1.2,13-3-.52-6.57-.52-6.57Z" transform="translate(-226.32 -27.89)"/><path class="cls-8" d="M285,70.47c0-14.35,13.11-26,29.28-26s29.28,11.63,29.28,26a23.18,23.18,0,0,1-.2,2.91,5.66,5.66,0,0,1,.2.58l-4.23,27.86S324.24,120,318.81,121.11s-21.13,1.07-24.75-2.15c-2.83-2.5-6.76-30.61-8.35-42.85a23.43,23.43,0,0,1-.71-5.64" transform="translate(-226.32 -27.89)"/><path class="cls-9" d="M286.21,45.13C285,31.42,305,33.8,305,33.8c3.76-10.73,19.44-3.58,19.44-3.58,14.41-6.56,24.44,9.55,24.44,9.55C365.2,41.55,360.19,60,360.19,60c12.54,7.76,0,20.88,0,20.88,9.4,7.75-2.51,19.68-2.51,19.68-1.25,11.33-15.67,9.54-15.67,9.54-7.52-2.38-.63-18.48-.63-18.48-5.64-4.18-.62-13.72-.62-13.72-6.9-2.39-2.51-10.14-2.51-10.14-7.53-.6-9.41-14.32-9.41-14.32-8.77,4.18-12.53-4.17-12.53-4.17-5.57,4.89-10.56,3.37-13.15,1.93a4.88,4.88,0,0,0-1.8-1.25.49.49,0,0,1-.1-.09V50a4.43,4.43,0,0,0-4.3.85c-7.47,5.73-10.31,13.35-11.36,21.73a9.48,9.48,0,0,1-1.27.63c-5-2.39-3.13-5.37-3.13-5.37-8.15-9.54,5-22.67,5-22.67" transform="translate(-226.32 -27.89)"/><path class="cls-8" d="M339.38,108.31l.6,35.18s-21.47,8.95-36.38.6l-.6-33.4s34-12.52,36.38-2.38" transform="translate(-226.32 -27.89)"/><g class="cls-10"><g class="cls-11"><path class="cls-8" d="M303.37,131.2,303,110.69s34-12.52,36.38-2.38l.28,16.2c-10.82,7.68-23.06,10.82-36.29,6.69" transform="translate(-226.32 -27.89)"/></g></g><path class="cls-12" d="M340,143.49l16.64,10.1-6.5,125.89s-53.68,14.32-85.89-3.58l8.95-127,28.73-9.08s10.63,14.45,38.07,3.71" transform="translate(-226.32 -27.89)"/><path class="cls-13" d="M263.55,276.19S246.64,487.84,253.4,489.77s28.2,7.75,33.27-6.45L306.41,333,322.2,493.65s25.37,5.8,31-5.17-8.46-212.29-8.46-212.29-77.81-8.39-81.2,0" transform="translate(-226.32 -27.89)"/><g class="cls-14"><g class="cls-15"><path class="cls-13" d="M275.19,462.74c5.8-21.43,11.68-42.87,16.86-64.46,3.71-15.5,7.23-31,11.86-46.28L286.67,483.32c-3,8.37-11.67,9.79-19.68,9.14q4.17-14.83,8.2-29.72" transform="translate(-226.32 -27.89)"/></g></g><g class="cls-16"><g class="cls-17"><path class="cls-13" d="M260.77,312.61c.28-3.73.54-7.26.79-10.54h84.93c.22,3.28.45,6.81.69,10.54Z" transform="translate(-226.32 -27.89)"/></g></g><path class="cls-6" d="M336.47,143.49l-2.6,252.9,49.4,2.47L365.63,153.63s-22.56-16-29.16-10.14" transform="translate(-226.32 -27.89)"/><path class="cls-6" d="M273.18,148.86a70.25,70.25,0,0,1,6.77-5c5-1.63,10.23-2.81,15.35-4.12a5.5,5.5,0,0,1,2.19,2.77L259.35,398.42l-24.28-8.2Z" transform="translate(-226.32 -27.89)"/><path class="cls-6" d="M273.18,148.86S229,190,227.25,224c0,0,3.58,14.32,19.69,9s34.59-56.66,34.59-56.66,7.16-27.44-8.35-27.44" transform="translate(-226.32 -27.89)"/><path class="cls-13" d="M323.26,75.49c0,.07.1.13.15.2-2.51,2.32-9.65,7.68-16.49,1.3,0,0,12.52-.18,16.34-1.5" transform="translate(-226.32 -27.89)"/><path class="cls-13" d="M285.06,75.11c4.55,1,9.48,1.71,9.48,1.71a9.85,9.85,0,0,1-9,1.72,20,20,0,0,1-.53-3.43" transform="translate(-226.32 -27.89)"/><path class="cls-13" d="M329.79,68.86s-12.9-3.68-19.44-1.45c0,0-2.49-2.19-.51-3.67s16-2.4,21.25,2.86c0,0,1.12.65-1.3,2.26" transform="translate(-226.32 -27.89)"/><path class="cls-13" d="M284.88,64c4.43-1.52,9.86-2.44,13.5-.76,0,0,1.28.22-.43,2.57a63.28,63.28,0,0,0-12.88,2.51c-.13-1.43-.2-2.87-.19-4.32" transform="translate(-226.32 -27.89)"/><g class="cls-18"><g class="cls-19"><rect class="cls-13" x="290.65" y="81.36" width="12.72" height="1.39" transform="translate(-73.87 326.3) rotate(-77.46)"/></g></g><path class="cls-6" d="M364.62,70.17s-17.94,22.56-34,22.18c0,0,.46,3.82,1.84,3.82s13.33,5,32.19-19.88c0,0,3.68-3.83,0-6.12" transform="translate(-226.32 -27.89)"/><path class="cls-6" d="M357.68,100.6s-24.33,16.18-34.45,18.94-1.84.92-1.84.92l-.46,4.6s35.79-10.75,36.75-24.46" transform="translate(-226.32 -27.89)"/><path class="cls-6" d="M329,90.68s-33.56-7.1-44.24-.89c0,0-3.21,25.5,6.61,35.49,0,0,30.51,11.54,42.21-9.76,0,0,10.17-23.07-4.58-24.84" transform="translate(-226.32 -27.89)"/><g class="cls-20"><g class="cls-21"><path class="cls-22" d="M305.42,123.87a43.23,43.23,0,0,0,30.71-16.14,49.22,49.22,0,0,1-2.53,7.79c-11.7,21.3-42.21,9.76-42.21,9.76a19.43,19.43,0,0,1-3.88-6.08c5.52,3.34,12.19,5.13,17.91,4.67" transform="translate(-226.32 -27.89)"/></g></g><polygon class="cls-6" points="113.93 108.67 122.2 116.03 109.79 123.85 102.43 116.03 113.93 108.67"/><polygon class="cls-6" points="78.05 110.06 68.85 125.23 63.79 112.81 74.83 107.3 78.05 110.06"/><g class="cls-23"><g class="cls-24"><path class="cls-22" d="M285.15,221.09h0a.69.69,0,0,0,.65-.74l-4.32-67.42,11.14-2.83-3.74-8.49a.71.71,0,0,0-.92-.36.7.7,0,0,0-.35.92l3.07,7-10.66,2.7,4.39,68.58a.7.7,0,0,0,.7.65" transform="translate(-226.32 -27.89)"/></g></g><path class="cls-8" d="M303.8,196.67s-48.31,43.49-62.35,39.8-18.56-13.08-12.51-20.31,64.66-32.41,64.66-32.41Z" transform="translate(-226.32 -27.89)"/><g class="cls-25"><g class="cls-26"><path class="cls-8" d="M264.68,221.69a224,224,0,0,0,23.08-11.44c-15.39,12.41-37.54,28.53-46.31,26.23-8.53-2.24-13.53-6.6-14.79-11.29,10.68,6.48,27.38.86,38-3.5" transform="translate(-226.32 -27.89)"/></g></g><g class="cls-23"><g class="cls-27"><path class="cls-22" d="M334.76,219.45a.7.7,0,0,0,.68-.54l14.3-64.9-7.22-3.09,6.49-6.51a.68.68,0,0,0,0-1,.69.69,0,0,0-1,0l-7.94,8,8,3.45-14.05,63.77a.7.7,0,0,0,.53.83h.15" transform="translate(-226.32 -27.89)"/></g></g><path class="cls-6" d="M283.56,187.73l10-5.53c.21-1.93,1.71-4.69,4.55-9.4,5.51-9.16,5.39-9.58,7-8.53s-2.53,9.64-1.76,11.92c.71-.64,1.37-1.21,2-1.68,3.16-2.79,15.66-13.73,16.61-12.25,1.08,1.68.53,3.82-11.93,13.23l.86.85c5.28-4.63,15.08-12.93,15.91-11.62,1.12,1.79.48,4.12-13.08,14.57.27.29.54.58.8.88,4.87-4.2,12.85-10.8,13.6-9.63,1.06,1.64.56,3.72-11.08,12.59.27.33.52.66.76,1,4.54-3.87,11-9.07,11.62-8.07,1,1.52.53,3.44-10.1,11.55-.84,1.4-8.79,6-14,8.91l-10.18,8.4Z" transform="translate(-226.32 -27.89)"/><g class="cls-20"><g class="cls-28"><path class="cls-22" d="M266.58,173.07c-.54,1.62-2.16,23.82-2.16,23.82l-17.87,8.67Z" transform="translate(-226.32 -27.89)"/></g></g><g class="cls-29"><g class="cls-30"><rect class="cls-13" x="363.28" y="189.12" width="2.78" height="100.99" transform="translate(-261.47 36.95) rotate(-9.7)"/></g></g></g></g></g></g></svg>