<?xml version="1.0" encoding="utf-8"?>
<!-- Generator: Adobe Illustrator 23.0.1, SVG Export Plug-In . SVG Version: 6.00 Build 0)  -->
<svg version="1.1" xmlns="http://www.w3.org/2000/svg" xmlns:xlink="http://www.w3.org/1999/xlink" x="0px" y="0px"
	 viewBox="0 0 750 500" style="enable-background:new 0 0 750 500;" xml:space="preserve">
<style type="text/css">
	.st0{fill:none;stroke:#747BFD;stroke-miterlimit:10;stroke-dasharray:5,5;}
	.st1{fill:#FB5D60;}
	.st2{fill:#FFFFFF;}
	.st3{fill:#FB5D60;stroke:#FFFFFF;stroke-miterlimit:10;}
	.st4{fill:#BCBEF9;}
	.st5{fill:none;stroke:#FFFFFF;stroke-miterlimit:10;}
	.st6{clip-path:url(#SVGID_2_);}
	.st7{fill:none;stroke:#747BFD;stroke-miterlimit:10;}
	.st8{clip-path:url(#SVGID_4_);}
	.st9{fill:#F9C03B;}
	.st10{opacity:0.2;fill:#FFFFFF;}
	.st11{opacity:0.1;fill:#231F20;}
	.st12{fill:#006591;}
	.st13{opacity:0.2;fill:#006591;}
	.st14{fill:#E99D86;}
	.st15{fill:#C46623;}
	.st16{fill:#E42568;}
	.st17{fill:#747BFD;}
	.st18{fill:none;stroke:#747BFD;stroke-width:3;stroke-miterlimit:10;}
	.st19{fill:#F7C6B5;}
	.st20{fill:#0A1E7D;}
	.st21{clip-path:url(#SVGID_6_);}
	.st22{fill:#C94958;}
	.st23{fill:#231F20;}
	.st24{fill:#176F8E;}
	.st25{fill:#D3424A;}
	.st26{fill:#95A6EF;}
	.st27{fill:#F4B395;}
	.st28{opacity:0.2;}
</style>
<g id="BACKGROUND">
</g>
<g id="OBJECTS">
	<g>
		<g>
			<g>
				<path class="st0" d="M579.71,432.39c87.03-31.47,116.45-134.76,81.38-210.29c-11.65-25.08-30.32-47.5-50.57-67.02
					c-9.06-8.74-18.51-17.24-25.86-27.28c-8.26-11.29-11.22-22.81-12.44-36.18c-1.07-11.69-1.27-25.53-12.98-32.75
					c-26.15-16.13-46.19,19.74-60.01,33.34c-12.03,11.83-29.43,18.32-46.89,19.14c-17.46,0.83-34.92-3.72-50.36-11.37
					c-10.81-5.36-21.6-12.46-33.84-12.19c-31.93,0.7-45.05,34.77-52.43,58.79c-7.21,23.46-15.01,52.18-39.93,64.83
					c-16.51,8.37-36.4,7.17-55.19,7.44c-32.4,0.46-67.44,7.16-90.69,29.76c-24.41,23.72-34.25,58.96-23.39,90.46
					c12.32,35.75,61.77,81.69,105,76.6"/>
				<g>
					<path class="st1" d="M344.81,241.96H203.34c-6.6,0-12-5.4-12-12v-69.26c0-6.6,5.4-12,12-12h141.47c6.6,0,12,5.4,12,12v69.26
						C356.81,236.56,351.41,241.96,344.81,241.96z"/>
					<polygon class="st1" points="338.06,241.96 386.16,241.96 356.81,211.08 					"/>
					<g>
						<path class="st2" d="M335.35,177.48H212.8c-1.47,0-2.67-1.2-2.67-2.67v-4.49c0-1.47,1.2-2.67,2.67-2.67h122.56
							c1.47,0,2.67,1.2,2.67,2.67v4.49C338.02,176.28,336.82,177.48,335.35,177.48z"/>
						<path class="st2" d="M332.75,200.24H215.4c-2.9,0-5.27-2.21-5.27-4.91l0,0c0-2.7,2.37-4.91,5.27-4.91h117.35
							c2.9,0,5.27,2.21,5.27,4.91l0,0C338.02,198.03,335.65,200.24,332.75,200.24z"/>
						<path class="st2" d="M268.8,223h-53.4c-2.9,0-5.27-2.21-5.27-4.91l0,0c0-2.7,2.37-4.92,5.27-4.92h53.4
							c2.9,0,5.27,2.21,5.27,4.92l0,0C274.07,220.79,271.7,223,268.8,223z"/>
					</g>
				</g>
				<g>
					<g>
						<path class="st1" d="M486.74,130.59h-80.07c-1.1,0-2-0.9-2-2V80.3c0-1.1,0.9-2,2-2h80.07c1.1,0,2,0.9,2,2v48.29
							C488.74,129.69,487.85,130.59,486.74,130.59z"/>
						<path class="st3" d="M406.03,79.98l36.81,33.27c2.11,1.91,5.63,1.91,7.74,0l36.81-33.27"/>
						<line class="st3" x1="406.03" y1="128.9" x2="436.23" y2="107.28"/>
						<line class="st3" x1="487.38" y1="128.9" x2="457.18" y2="107.28"/>
					</g>
					<g>
						<path class="st4" d="M681.78,56.83h-46.83c-1.1,0-2-0.9-2-2V27.22c0-1.1,0.9-2,2-2h46.83c1.1,0,2,0.9,2,2v27.61
							C683.78,55.94,682.88,56.83,681.78,56.83z"/>
						<path class="st5" d="M633.77,26.24l22.25,20.11c1.27,1.15,3.4,1.15,4.68,0l22.25-20.11"/>
						<line class="st5" x1="633.77" y1="55.82" x2="652.03" y2="42.74"/>
						<line class="st5" x1="682.96" y1="55.82" x2="664.7" y2="42.74"/>
					</g>
					<g>
						<path class="st4" d="M239.76,293.44h-46.83c-1.1,0-2-0.9-2-2v-27.61c0-1.1,0.9-2,2-2h46.83c1.1,0,2,0.9,2,2v27.61
							C241.76,292.55,240.86,293.44,239.76,293.44z"/>
						<path class="st5" d="M191.75,262.85l22.25,20.11c1.27,1.15,3.4,1.15,4.68,0l22.25-20.11"/>
						<line class="st5" x1="191.75" y1="292.43" x2="210.01" y2="279.35"/>
						<line class="st5" x1="240.94" y1="292.43" x2="222.68" y2="279.35"/>
					</g>
					<g>
						<ellipse class="st1" cx="589.61" cy="120.88" rx="38.69" ry="36.06"/>
						<g>
							<path class="st2" d="M581.08,117.97l1.41-1.45c1.16-1.2,1.75-2.74,1.66-4.35c-0.09-1.61-0.84-3.09-2.12-4.17l-2.37-2
								c-1.19-1.01-2.73-1.56-4.34-1.56c-1.83,0-3.58,0.72-4.8,1.98l-1.41,1.45c-0.18,0.19-0.35,0.39-0.52,0.61l-0.06,0.07
								c-1.33,1.06-2.46,3.64-1.8,6.79c3.02,14.68,16.29,25.87,32.26,27.2c2.1,0.18,4.07-0.23,5.56-1.08
								c0.6-0.32,1.13-0.72,1.58-1.19l1.41-1.45c2.39-2.47,2.19-6.29-0.46-8.52l-2.37-2c-1.19-1-2.73-1.56-4.34-1.56
								c-1.83,0-3.58,0.73-4.8,1.99l-1.41,1.45c-0.6,0.62-1.05,1.33-1.33,2.12l-0.13,0.35l-0.37-0.14
								c-6.28-2.31-11.39-6.69-14.41-12.32l-0.2-0.37l0.43-0.12C579.28,119.39,580.29,118.79,581.08,117.97z"/>
							<path class="st2" d="M588.98,100.58c0,0.78,0.68,1.41,1.51,1.41c10.57,0,19.17,8.02,19.17,17.87c0,0.78,0.68,1.41,1.51,1.41
								c0.83,0,1.51-0.63,1.51-1.41c0-11.41-9.95-20.69-22.19-20.69C589.66,99.17,588.98,99.8,588.98,100.58z"/>
							<path class="st2" d="M588.74,107.46c0,0.78,0.68,1.41,1.51,1.41c6.64,0,12.04,5.03,12.04,11.22c0,0.78,0.68,1.41,1.51,1.41
								c0.83,0,1.51-0.63,1.51-1.41c0-7.74-6.75-14.03-15.05-14.03C589.42,106.05,588.74,106.68,588.74,107.46z"/>
						</g>
					</g>
					<g>
						<ellipse class="st4" cx="361.22" cy="300.9" rx="24.96" ry="23.26"/>
						<g>
							<path class="st2" d="M355.72,299.03l0.91-0.93c0.75-0.77,1.13-1.77,1.07-2.81c-0.06-1.04-0.54-1.99-1.37-2.69l-1.53-1.29
								c-0.77-0.65-1.76-1.01-2.8-1.01c-1.18,0-2.31,0.47-3.1,1.28l-0.91,0.94c-0.12,0.12-0.23,0.25-0.33,0.39l-0.04,0.04
								c-0.86,0.68-1.59,2.35-1.16,4.38c1.95,9.47,10.51,16.69,20.81,17.55c1.35,0.11,2.62-0.15,3.59-0.7
								c0.39-0.21,0.73-0.46,1.02-0.77l0.91-0.94c1.54-1.59,1.41-4.06-0.3-5.5l-1.53-1.29c-0.77-0.65-1.76-1.01-2.8-1.01
								c-1.18,0-2.31,0.47-3.1,1.28l-0.91,0.94c-0.39,0.4-0.68,0.86-0.86,1.37l-0.08,0.23l-0.24-0.09
								c-4.05-1.49-7.35-4.31-9.29-7.95l-0.13-0.24l0.28-0.08C354.55,299.94,355.21,299.55,355.72,299.03z"/>
							<path class="st2" d="M360.81,287.8c0,0.5,0.44,0.91,0.97,0.91c6.82,0,12.37,5.17,12.37,11.53c0,0.5,0.44,0.91,0.97,0.91
								c0.54,0,0.97-0.41,0.97-0.91c0-7.36-6.42-13.34-14.31-13.34C361.25,286.9,360.81,287.3,360.81,287.8z"/>
							<path class="st2" d="M360.66,292.24c0,0.5,0.44,0.91,0.97,0.91c4.28,0,7.76,3.25,7.76,7.24c0,0.5,0.44,0.91,0.97,0.91
								c0.54,0,0.97-0.41,0.97-0.91c0-4.99-4.36-9.05-9.71-9.05C361.09,291.34,360.66,291.74,360.66,292.24z"/>
						</g>
					</g>
					<g>
						<ellipse class="st4" cx="609.21" cy="219.09" rx="23.16" ry="21.59"/>
						<g>
							<path class="st2" d="M604.11,217.35l0.84-0.87c0.69-0.72,1.05-1.64,1-2.6c-0.05-0.96-0.5-1.85-1.27-2.5l-1.42-1.2
								c-0.71-0.6-1.64-0.93-2.6-0.93c-1.09,0-2.14,0.43-2.87,1.19l-0.84,0.87c-0.11,0.11-0.21,0.23-0.31,0.36l-0.04,0.04
								c-0.8,0.63-1.47,2.18-1.08,4.07c1.81,8.79,9.75,15.49,19.32,16.29c1.26,0.11,2.44-0.14,3.33-0.65
								c0.36-0.19,0.67-0.43,0.95-0.71l0.84-0.87c1.43-1.48,1.31-3.77-0.27-5.1l-1.42-1.2c-0.71-0.6-1.64-0.93-2.6-0.93
								c-1.09,0-2.14,0.43-2.87,1.19l-0.84,0.87c-0.36,0.37-0.63,0.8-0.8,1.27l-0.08,0.21l-0.22-0.08c-3.76-1.38-6.82-4-8.63-7.38
								l-0.12-0.22l0.26-0.07C603.03,218.19,603.63,217.84,604.11,217.35z"/>
							<path class="st2" d="M608.84,206.93c0,0.46,0.4,0.84,0.9,0.84c6.33,0,11.48,4.8,11.48,10.7c0,0.46,0.4,0.84,0.9,0.84
								c0.5,0,0.9-0.38,0.9-0.84c0-6.83-5.96-12.39-13.29-12.39C609.24,206.09,608.84,206.46,608.84,206.93z"/>
							<path class="st2" d="M608.69,211.05c0,0.46,0.4,0.84,0.9,0.84c3.97,0,7.21,3.01,7.21,6.72c0,0.47,0.4,0.84,0.9,0.84
								c0.5,0,0.9-0.38,0.9-0.84c0-4.63-4.04-8.4-9.01-8.4C609.09,210.21,608.69,210.58,608.69,211.05z"/>
						</g>
					</g>
					<g>
						<ellipse class="st4" cx="435.71" cy="21.01" rx="21.47" ry="20.01"/>
						<g>
							<path class="st2" d="M430.98,19.4l0.78-0.8c0.64-0.66,0.97-1.52,0.92-2.41c-0.05-0.89-0.47-1.72-1.18-2.31l-1.32-1.11
								c-0.66-0.56-1.52-0.87-2.41-0.87c-1.01,0-1.98,0.4-2.66,1.1l-0.78,0.81c-0.1,0.1-0.2,0.22-0.29,0.34l-0.04,0.04
								c-0.74,0.59-1.36,2.02-1,3.77c1.68,8.15,9.04,14.35,17.91,15.1c1.16,0.1,2.26-0.13,3.09-0.6c0.33-0.18,0.63-0.4,0.88-0.66
								l0.78-0.81c1.33-1.37,1.21-3.49-0.25-4.73l-1.32-1.11c-0.66-0.56-1.52-0.87-2.41-0.87c-1.01,0-1.98,0.4-2.66,1.1l-0.78,0.8
								c-0.33,0.34-0.58,0.74-0.74,1.18l-0.07,0.19l-0.21-0.08c-3.48-1.28-6.32-3.71-7.99-6.84l-0.11-0.21l0.24-0.07
								C429.98,20.19,430.54,19.85,430.98,19.4z"/>
							<path class="st2" d="M435.36,9.75c0,0.43,0.37,0.78,0.84,0.78c5.87,0,10.64,4.45,10.64,9.92c0,0.43,0.37,0.78,0.84,0.78
								c0.46,0,0.84-0.35,0.84-0.78c0-6.33-5.52-11.48-12.31-11.48C435.74,8.97,435.36,9.32,435.36,9.75z"/>
							<path class="st2" d="M435.23,13.56c0,0.43,0.37,0.78,0.84,0.78c3.68,0,6.68,2.79,6.68,6.23c0,0.43,0.37,0.78,0.84,0.78
								s0.84-0.35,0.84-0.78c0-4.29-3.75-7.79-8.35-7.79C435.6,12.78,435.23,13.13,435.23,13.56z"/>
						</g>
					</g>
				</g>
			</g>
			<g>
				<g>
					<defs>
						<path id="SVGID_1_" d="M631.99,248.92c7.93-6.22,17.48-10.47,28.17-11.44c5.18-0.47,10.86,0.1,14.75,3.33
							c10.24,8.5,9.18,28.71,9,40.52c-0.43,28.39-8.15,56.4-20.28,82.34c-6,12.84-13.1,25.22-21.09,37.08
							c-3.67,5.45-7.57,10.76-11.1,16.29c-1.48,2.32-11.4,16.69-9.52,19c-8.65-10.61-13.47-23.58-15.91-36.71
							c-3.61-19.42-7.53-39.43-6.45-59.48c1.11-20.61,4.36-41.26,11.19-60.94C614.69,267.56,622.07,256.7,631.99,248.92z"/>
					</defs>
					<use xlink:href="#SVGID_1_"  style="overflow:visible;fill:#BCBEF9;"/>
					<clipPath id="SVGID_2_">
						<use xlink:href="#SVGID_1_"  style="overflow:visible;"/>
					</clipPath>
					<g class="st6">
						<g>
							<path class="st7" d="M620.92,446.21c-2.93-34.24,0.29-68.71,7.34-102.36c6.73-32.1,15.47-64.3,28.59-94.68
								c4.33-10.04,9.19-19.89,14.69-29.42"/>
							<path class="st7" d="M700.15,265.84c-18.11,5.82-35.41,13.84-51.31,23.81c-4.03,2.53-6.28,3.29-9.65,6.56"/>
							<path class="st7" d="M630.33,332.8c17.42-10.33,37.15-17.26,57.54-20.25"/>
							<path class="st7" d="M623.11,376.89c16.24-12.92,35.99-21.99,56.88-26.12"/>
							<path class="st7" d="M640.09,295.08c-1.12-18.11-5.81-36.03-13.77-52.58"/>
							<path class="st7" d="M630.56,331.31c-8.07-16.41-19.8-31.25-34.22-43.29"/>
							<path class="st7" d="M622.03,378.13c-1.09-5.06-3.04-9.96-5.75-14.46c-3.15-5.24-7.29-9.89-11.51-14.43
								c-3.04-3.27-6.13-6.49-9.27-9.67"/>
						</g>
					</g>
				</g>
				<g>
					<defs>
						<path id="SVGID_3_" d="M588.38,312.83c-5.93-3.16-12.67-4.86-19.73-4.3c-3.42,0.27-7.03,1.27-9.14,3.79
							c-5.56,6.64-2.3,19.64-0.68,27.27c3.9,18.37,12.47,35.68,23.64,51.16c5.53,7.66,11.71,14.91,18.4,21.71
							c3.07,3.13,6.28,6.14,9.28,9.33c1.26,1.34,9.52,9.56,8.59,11.27c4.26-7.84,5.73-16.79,5.64-25.57
							c-0.13-12.99-0.14-26.41-3.39-39.29c-3.34-13.25-8.08-26.28-15.02-38.28C601.98,323.01,595.8,316.78,588.38,312.83z"/>
					</defs>
					<use xlink:href="#SVGID_3_"  style="overflow:visible;fill:#BCBEF9;"/>
					<clipPath id="SVGID_4_">
						<use xlink:href="#SVGID_3_"  style="overflow:visible;"/>
					</clipPath>
					<g class="st8">
						<path class="st7" d="M620.69,439.56c-2.46-22.53-8.94-44.53-17.8-65.57c-8.45-20.07-18.23-39.99-30.6-58.24
							c-4.09-6.03-8.49-11.88-13.28-17.45"/>
						<path class="st7" d="M546.33,331.35c12.49,1.77,24.73,5.06,36.31,9.76c2.94,1.19,4.49,1.44,7.09,3.18"/>
						<path class="st7" d="M600.14,367.04c-12.62-4.77-26.29-7.09-39.9-6.76"/>
						<path class="st7" d="M610.44,394.84c-12.18-6.58-26.14-10.28-40.22-10.64"/>
						<path class="st7" d="M589,343.66c-1.58-11.87-0.82-24.01,2.23-35.63"/>
						<path class="st7" d="M599.8,366.1c3.14-11.54,8.86-22.46,16.68-31.87"/>
						<path class="st7" d="M611.3,395.53c0.06-3.4,0.7-6.8,1.89-10.02c1.38-3.75,3.47-7.22,5.63-10.63c1.55-2.46,3.15-4.89,4.78-7.3
							"/>
					</g>
				</g>
				<path class="st9" d="M649.44,424.5c-12.01,0-49.12,0-60.42,0c0,31.81,10.6,63.63,10.6,63.63h39.22
					C638.84,488.12,649.44,456.45,649.44,424.5z"/>
				<rect x="584.42" y="415.93" class="st9" width="69.61" height="8.56"/>
			</g>
			<g>
				<g>
					<path class="st9" d="M147.58,469.39h-15.87c-4.01,0-7.26-3.04-7.26-6.77v-27.44c0-3.73,3.26-6.77,7.26-6.77h15.87
						c4.01,0,7.26,3.04,7.26,6.77v27.44C154.85,466.35,151.59,469.39,147.58,469.39z M131.71,434.21c-0.56,0-1.04,0.44-1.04,0.97
						v27.44c0,0.53,0.48,0.97,1.04,0.97h15.87c0.56,0,1.04-0.44,1.04-0.97v-27.44c0-0.53-0.48-0.97-1.04-0.97H131.71z"/>
				</g>
				<path class="st9" d="M183.03,475.25h-40.39c-1.65,0-3-1.35-3-3v-49.09c0-1.65,1.35-3,3-3h40.39c1.65,0,3,1.35,3,3v49.09
					C186.03,473.9,184.68,475.25,183.03,475.25z"/>
				<path class="st10" d="M177.25,462.03h-6.17c-1.1,0-2-0.9-2-2v-37.86c0-1.1,0.9-2,2-2h6.17c1.1,0,2,0.9,2,2v37.86
					C179.25,461.13,178.35,462.03,177.25,462.03z"/>
				<path class="st11" d="M156.8,466.57c-2.8,0-5.08-2.13-5.08-4.74v-41.66h-6.99c-2.8,0-5.08,2.13-5.08,4.74v45.61
					c0,2.61,2.29,4.74,5.08,4.74h36.22c2.8,0,5.08-2.13,5.08-4.74v-3.95H156.8z"/>
			</g>
			<g>
				<g>
					<g>
						<path class="st12" d="M577.64,501H439.46c-10.62,0-19.23-6.36-19.23-14.2v-95.95c0-36.02,39.54-65.22,88.33-65.22h0
							c48.78,0,88.33,29.2,88.33,65.22v95.95C596.88,494.64,588.27,501,577.64,501z"/>
						<path class="st13" d="M567.75,342.46c11.7,11.06,18.68,24.97,18.68,40.09v95.95c0,7.84-8.61,14.2-19.23,14.2H429.01
							c-2.73,0-5.33-0.43-7.69-1.19c2.63,5.53,9.75,9.49,18.13,9.49h138.19c10.62,0,19.23-6.36,19.23-14.2v-95.95
							C596.88,371.65,585.64,354.39,567.75,342.46z"/>
					</g>
					<polygon class="st14" points="509.7,346.55 478.13,346.55 473.48,303.18 505.06,303.18 					"/>
					<path class="st15" d="M443.4,474.93L443.4,474.93c-16.56-0.91-25.88-18.17-16.79-31.11l57.4-81.74
						c4.24-6.03,11.61-9.49,19.33-9.07h0c16.56,0.91,25.88,18.17,16.79,31.11l-57.4,81.74C458.49,471.9,451.12,475.36,443.4,474.93z
						"/>
					<path class="st16" d="M298.56,434.18h146.71c12.06,0,21.84,9.11,21.84,20.36l0,0c0,11.24-9.78,20.36-21.84,20.36H298.56
						c-12.06,0-21.84-9.11-21.84-20.36l0,0C276.72,443.29,286.5,434.18,298.56,434.18z"/>
					<g>
						<g>
							<ellipse class="st17" cx="445.09" cy="275.97" rx="20.8" ry="19.39"/>
						</g>
					</g>
					<path class="st1" d="M559.67,421.9c0.23,12.4,0.18,24.81,0.04,37.22c-0.07,6.21-0.16,12.41-0.25,18.62
						c-0.09,6.24,0.62,13.05-0.35,19.2c-7.81,1.08-16.59,0.13-24.5,0.13c-12.57,0-25.14,0-37.71,0c-20.39,0-40.78,0-61.17,0
						c-0.1,0-2,0-2,0c-1.72-0.54,0.01-14.49-0.09-16.35c-1.4-25.04-5.16-49.7-3.79-74.86c0.58-10.6,1.91-21.25,5.53-31.32
						c5.51-15.31,16.24-27.77,32.81-33.31c15.71-5.25,33.26-5.01,49.58-2.88c12.29,1.6,22.33,8.97,29.56,18.04
						c10.78,13.52,10.86,31.83,11.72,48C559.37,410.22,559.56,416.06,559.67,421.9z"/>
					<path class="st18" d="M476.52,175.23c-20.45,0-37.03,14.23-37.03,31.79v55.3"/>
					<path class="st19" d="M490.25,324.82c-7.2,0.25-14.46-0.59-21.23-2.82c-31.42-10.34-34.48-44.29-33.75-69.49
						c0.23-7.93,0.18-15.86,0.7-23.79c0.6-9.34,3.67-19.09,14.47-22.79c2.84-0.97,5.86-1.1,8.72-1.9c3.56-1,6.78-1.75,10.59-1.75
						c0,0,32.03,0,32.05,0c11.1,0,21.68,4.95,28.03,12.99c5.96,7.55,6.44,17.02,6.4,25.91c-0.04,7.92,0.08,15.85-0.36,23.76
						c-0.83,14.93-3.44,30.91-13.44,43.41c-3.42,4.27-7.67,7.99-12.58,10.92C504.03,322.72,497.24,324.57,490.25,324.82z"/>
					<path class="st20" d="M507.57,179.64c-2.66-1.17-5.53-1.93-8.46-2.19c-3.62-0.33-7.65-0.02-11.16,0.89
						c-1.19,0.31-10.53,3.36-10.2,4.76c-1.13-4.84-6.08-8.35-11.31-9.23s-10.63,0.47-15.44,2.56c-1.28,0.55-9.22,6.42-7.04,8.09
						c-2.59-1.98-5.94-2.93-9.28-3.15c-5.96-0.41-14.28,0.76-17.76,5.93c-1.6,2.37-1.96,5.3-1.73,8.09c0.45,5.43,3,10.56,6.4,14.98
						c-3.81-2.13-9.21,0.87-10.08,4.93c-0.87,4.06,1.81,8.22,5.47,10.56c4.71,3.02,10.72,3.61,16.43,3.67
						c24.93,0.26,50.24-7.65,74.42-1.97c3.59,0.84,5.58,2.98,7.29,5.95c3.57,6.21,6.46,12.74,8.32,19.56
						c2.31,8.42,5.69,18.29,15.82,20.58c2.32,0.53,4.85,1.12,6.66-0.2c2.01-1.47,3.49-5.44,4.52-7.57c1.6-3.3,2.89-6.73,3.9-10.22
						c4.38-15.09,4.03-31.97-2.12-46.61c-3.89-9.26-11.03-20.09-21.54-23.45c-2.43-0.78-5.76-1.71-8.34-1.39
						c-0.87,0.11-5.3,2.4-5.77,1.94C514.14,183.38,511.03,181.16,507.57,179.64z"/>
					<path class="st18" d="M536.57,257.66v-50.62c0-17.56-16.58-31.79-37.03-31.79h-23.02"/>
					<g>
						<g>
							<defs>
								<path id="SVGID_5_" d="M455.64,294.1c0,8,6.95,14.48,15.53,14.48l0,0c8.58,0,15.53-6.48,15.53-14.48"/>
							</defs>
							<use xlink:href="#SVGID_5_"  style="overflow:visible;fill:#333333;"/>
							<clipPath id="SVGID_6_">
								<use xlink:href="#SVGID_5_"  style="overflow:visible;"/>
							</clipPath>
							<g class="st21">
								<g>
									<path class="st22" d="M458.15,305.75c0,2.86,5.83,5.19,13.02,5.19c7.19,0,13.02-2.32,13.02-5.19
										c0-2.86-5.83-5.18-13.02-5.18C463.98,300.57,458.15,302.89,458.15,305.75z"/>
								</g>
							</g>
						</g>
						<path class="st23" d="M501.59,264.58c0,4.14-2.44,7.5-5.46,7.5c-3.01,0-5.46-3.36-5.46-7.5c0-4.14,2.44-7.5,5.46-7.5
							C499.15,257.08,501.59,260.44,501.59,264.58z"/>
						<path class="st23" d="M454.51,264.58c0,4.14-2.44,7.5-5.46,7.5c-3.01,0-5.46-3.36-5.46-7.5c0-4.14,2.44-7.5,5.46-7.5
							C452.07,257.08,454.51,260.44,454.51,264.58z"/>
						<g>
							<path class="st20" d="M493,246.53c1.77-0.82,3.73-1.23,5.7-1.32c1.98-0.09,3.98,0.15,5.9,0.72c1.91,0.56,3.73,1.47,5.33,2.63
								c1.6,1.16,3,2.6,4.01,4.27c-1.61-1.1-3.19-2.1-4.83-2.94c-1.64-0.84-3.34-1.52-5.08-2.04c-1.74-0.52-3.53-0.88-5.37-1.08
								C496.82,246.56,494.95,246.53,493,246.53z"/>
						</g>
						<g>
							<path class="st20" d="M458.31,246.53c-1.95-0.01-3.82,0.03-5.66,0.23c-1.84,0.2-3.63,0.57-5.37,1.08
								c-1.74,0.52-3.44,1.2-5.08,2.04c-1.64,0.84-3.22,1.85-4.83,2.94c1.01-1.67,2.41-3.11,4.01-4.27c1.6-1.16,3.41-2.07,5.33-2.63
								c1.91-0.57,3.92-0.81,5.9-0.72C454.58,245.3,456.54,245.72,458.31,246.53z"/>
						</g>
						<ellipse class="st14" cx="471.17" cy="278.25" rx="5.35" ry="4.59"/>
					</g>
					<path class="st18" d="M530.7,288.67c-7.01,20.79-29.77,28.25-45.66,25.55"/>
					<path class="st17" d="M477.99,314.22c0,3.62,3.15,6.56,7.04,6.56c3.89,0,7.04-2.94,7.04-6.56c0-3.62-3.15-6.56-7.04-6.56
						C481.15,307.65,477.99,310.59,477.99,314.22z"/>
					<g>
						<ellipse class="st12" cx="536.62" cy="275.97" rx="21.65" ry="20.18"/>
						<path class="st24" d="M549.6,275.97c0,6.69-5.82,12.11-12.99,12.11s-12.99-5.42-12.99-12.11c0-6.69,5.82-12.11,12.99-12.11
							S549.6,269.28,549.6,275.97z"/>
					</g>
					<path class="st25" d="M533.06,475.59c29.47-12.48,28.85-47.1,27.9-72.67c-0.49-13.25-0.45-27.85-6.39-40.12
						c-3.88-8-11.34-14.06-21.29-12.27c-15.59,2.79-18.4,23.29-19.79,34.41c-1.5,11.99-0.78,24.13-2.44,36.1
						c-0.71,5.15-2.15,10.7-6.79,14c-3.64,2.59-8.56,3.29-13.24,3.79c-10.62,1.13-21.33,1.68-32.04,1.64
						c-15.26-0.05-31-1.22-45.35,3.27c-1.19,0.37-2.42,0.81-3.24,1.65c-1.19,1.22-1.25,2.96-1.24,4.55
						c0.01,4.4,0.03,8.81,0.04,13.21c0.01,2.44,0.06,5.03,1.56,7.1c1.29,1.79,3.49,2.94,5.7,3.85c10.62,4.4,22.8,4.77,34.57,5.06
						c14.59,0.36,29.18,0.73,43.77,1.09c12.38,0.31,26.38,0.18,37.8-4.49C532.74,475.72,532.9,475.66,533.06,475.59z"/>
					<path class="st19" d="M402.95,432.6c10.56,0.44,18.86,5.98,26.64,12.12c3.17,2.5,5.92,5.74,6.61,9.56
						c0.83,4.57-0.92,9.56-6.21,9.99c-6.71,0.55-13.26,0.12-19.17-3.09c-4.59-2.5-8.39-6.92-13.98-7.46
						c-4.45-0.43-8.59,1.91-12.8,3.32c-3.87,1.3-8.03,1.83-12.14,1.57c-1.19-0.08-2.45-0.25-3.36-0.97
						c-3.74-2.92,5.15-12.82,7.52-14.88c2.5-2.18,5.4-3.92,8.4-5.44C390.15,434.47,396.48,432.33,402.95,432.6z"/>
					<g>
						<g>
							<path class="st26" d="M79.92,501l601.95,0c3.45,0,6.25-2.8,6.25-6.25v-13.6c0-3.45-2.8-6.25-6.25-6.25H79.92
								c-3.45,0-6.25,2.8-6.25,6.25v13.6C73.66,498.2,76.46,501,79.92,501z"/>
						</g>
					</g>
					<path class="st27" d="M273.92,458.13c0-13.14,11.42-23.78,25.51-23.78c14.09,0,25.51,10.65,25.51,23.78"/>
					<g>
						<g>
							<path class="st12" d="M462.8,456.49H362.04c-2.21,0-4,1.79-4,4v10.4c0,2.21,1.79,4,4,4H462.8c2.21,0,4-1.79,4-4v-10.4
								C466.8,458.28,465.01,456.49,462.8,456.49z"/>
							<path class="st12" d="M375.34,458.28l-25.45-120.77c-0.67-3.19-3.67-5.49-7.16-5.49H173.55c-2.45,0-4.55,1.13-5.86,2.8
								l-0.02-0.02l-7.81,8.61l6.93-1.42l25.06,118.91c0.67,3.19,3.67,5.49,7.16,5.49h169.18
								C372.77,466.39,376.23,462.48,375.34,458.28z"/>
							<path class="st12" d="M191.27,474.9h169.18c4.59,0,8.05-3.91,7.16-8.11l-25.45-120.77c-0.67-3.19-3.67-5.49-7.16-5.49H165.82
								c-4.59,0-8.05,3.91-7.16,8.11l25.45,120.77C184.78,472.6,187.78,474.9,191.27,474.9z"/>
							<polygon class="st12" points="245.32,395.86 276.94,395.86 279.58,413.59 248.78,413.59 							"/>
						</g>
						<path class="st12" d="M158.52,346.14"/>
					</g>
					<g class="st28">
						<g>
							<path class="st2" d="M232.97,352.73c28.43,0,56.86,0,85.29,0c4.06,0,8.13,0,12.19,0c3.22,0,3.22-5,0-5
								c-28.43,0-56.86,0-85.29,0c-4.06,0-8.13,0-12.19,0C229.75,347.73,229.75,352.73,232.97,352.73L232.97,352.73z"/>
						</g>
					</g>
				</g>
			</g>
		</g>
	</g>
</g>
<g id="DESIGNED_BY_FREEPIK">
</g>
</svg>
