<svg xmlns="http://www.w3.org/2000/svg" xmlns:xlink="http://www.w3.org/1999/xlink" viewBox="0 0 305.11 314.7"><defs><style>.cls-1,.cls-15{fill:none;}.cls-2{isolation:isolate;}.cls-3{fill:#006591;}.cls-29,.cls-4,.cls-6,.cls-9{fill:#33658a;}.cls-13,.cls-14,.cls-26,.cls-5{fill:#fff;}.cls-6{opacity:0.2;}.cls-16,.cls-21,.cls-24,.cls-7{fill:#f7b19c;}.cls-8,.cls-9{opacity:0.4;}.cls-16,.cls-17,.cls-18,.cls-21,.cls-24,.cls-25,.cls-28,.cls-8,.cls-9{mix-blend-mode:multiply;}.cls-10,.cls-17,.cls-18{fill:#2f4858;}.cls-11{clip-path:url(#clip-path);}.cls-12,.cls-28{fill:#f26419;}.cls-13,.cls-17{opacity:0.44;}.cls-14{opacity:0.7;}.cls-15{stroke:#f7b19c;stroke-miterlimit:10;}.cls-16{opacity:0.52;}.cls-18{opacity:0.39;}.cls-19{opacity:0.56;}.cls-20{opacity:0.49;}.cls-21{opacity:0.38;}.cls-22{opacity:0.3;}.cls-23{fill:#0b3954;}.cls-24{opacity:0.48;}.cls-25,.cls-31{fill:#86bbd8;}.cls-25{opacity:0.58;}.cls-26{opacity:0.36;}.cls-27{fill:#fb5d60;}.cls-28{opacity:0.66;}.cls-29{opacity:0.35;}.cls-30{fill:#0f536b;}</style><clipPath id="clip-path"><path class="cls-1" d="M64.33,31.4l-.76,10s7.66-2.44,6.59-6.13S64.33,31.4,64.33,31.4Z"/></clipPath></defs><g class="cls-2"><g id="Layer_2" data-name="Layer 2"><g id="OBJECTS"><path class="cls-3" d="M6.73,76.71s0,0,0,.05,0,.36.12,1a37.92,37.92,0,0,0,11.51-2.44L17.84,73c-.06-.35-.11-.64-.11-.7.73-.39,3.1-2.19,4.13-9.19,1.23-8.32,1.52-8.52,0-8.7S18.57,61.54,17,62.54c-.1-.74-.22-1.42-.35-2-.52-3.28-2.65-16.16-4-15.74-1.5.48-2.24,2.05.63,14l-.95.08c-.9-5.45-2.69-15.39-3.85-15-1.58.52-2.36,2.26.66,15.38l-.93.13c-.86-5-2.41-13-3.44-12.64-1.46.47-2.2,2,.43,13.18-.33.07-.65.14-1,.22-.82-4.62-2.12-11-3-10.71-1.35.44-2,1.82.36,12.06C1.35,63.11,5.48,73.58,6.73,76.71Z"/><path class="cls-4" d="M146.33,198.07s0,0,0,0,0-.31,0-.85a32.21,32.21,0,0,0-9.93,1.09l.24,2c0,.3,0,.55,0,.59-.64.27-2.8,1.59-4.27,7.42-1.74,6.93-2,7.07-.72,7.35s3.37-5.73,4.82-6.44a16.37,16.37,0,0,0,.13,1.72c.16,2.81.87,13.88,2,13.63,1.3-.28,2.06-1.54.65-11.87h.81c.3,4.68,1,13.23,2,13,1.37-.31,2.18-1.71.74-13l.79,0c.31,4.28.94,11.17,1.84,11,1.28-.27,2-1.48.75-11.17l.82-.1c.3,4,.87,9.46,1.65,9.29,1.18-.25,1.88-1.36.72-10.21C149.72,210,147.12,200.83,146.33,198.07Z"/><path class="cls-5" d="M124.68,76.94s30.55-5,26.26,99.59v16.23s-10.56,8.18-18.31.47S119.23,82.49,124.68,76.94Z"/><path class="cls-5" d="M135.26,195.18s-1.6,5.82,4.38,5.82,9.55-.83,10-2.08-.4-4.57-.4-4.57Z"/><path class="cls-5" d="M51.24,254.64c.9,7.79-.91,43.07-1.86,60.06H89.06l-2.78-74s-1.59-13.94-.4-14.73,3.59,8.36,4,13.94c.31,4.29,7,52.74,10,74.79h35.2l-3.4-150.22a26.35,26.35,0,0,0-.43-7.8l-3.19-78.84s-56.94-6.77-58.93-2.39c0,0-11.95,1.6-15.53,13.14s-.8,62.52-.8,62.52-3,16.34,1.13,20.68C53.46,181.23,50.13,245.06,51.24,254.64Z"/><path class="cls-6" d="M135.11,314.7l-3.4-150.22a26.35,26.35,0,0,0-.43-7.8l-1.93-47.6c-.6,6.92-1.36,13.82-2.24,20.7Q127,149,127,168.17c.09,20.13.91,40.26.86,60.39-.05,19.81-1.13,39.58-2,59.37-.37,8.75.8,17.83.81,26.77Z"/><path class="cls-6" d="M89.06,314.7l-2.78-74s-1.06-9.29-.8-13.13l-.78-1.74c-2.12,30.22-9.1,59.58-16.47,88.87Z"/><path class="cls-5" d="M61.59,78.64S44.07,90.58,30.53,116.47c0,0,.4-33-8.36-43,0,0-16.32,2.39-17.52,7.57s4.78,65.3,22.7,62.12,37.83-25.89,37.83-25.89S72.34,83,61.59,78.64Z"/><path class="cls-6" d="M42.41,133.37c-4.75,1.2-10.08,1.87-14.85.39s-7.17-5.19-9.13-9.73c-5.85-13.59-5.52-29.7-13.88-42.17-.62,8.83,5.56,64.35,22.8,61.29,8.33-1.49,17.09-7.19,24.08-12.86A57.34,57.34,0,0,1,42.41,133.37Z"/><path class="cls-6" d="M96.83,105.74c14.09-2.46,24.56-13.13,31.36-25.48l-.1-2.42s-56.94-6.77-58.93-2.39A21.25,21.25,0,0,0,57.92,81.3C63.34,96.68,80.75,108.55,96.83,105.74Z"/><ellipse class="cls-7" cx="86.08" cy="34.24" rx="23.47" ry="22.2"/><path class="cls-5" d="M117.34,24.88C113.36,1,90.66.59,90.66.59,60,5.37,61.59,37.23,62.79,44s-1.2,36.23-1.2,36.23c26.28,38.23,66.5-2.39,66.5-2.39S121.32,48.77,117.34,24.88ZM81.5,52.76s-17.12.79-17.92-17.52c0,0-.79-18.32,20.31-20.71,0,0,16.73-.8,20.71,13.94S99,55.94,81.5,52.76Z"/><path class="cls-5" d="M5.85,78.64s-4-3.19-1.2-4.78,13.94-5.18,15.13-4.78,2.39,4.38,2.39,4.38Z"/><g class="cls-8"><path class="cls-4" d="M87,14.38l-1.86-.05c0-.36.26-8.88,4.8-14.33l1.42,1.19C87.26,6.14,87,14.3,87,14.38Z"/></g><path class="cls-4" d="M62.29,41.76h42.12s7,35.29-27,28.5C77.41,70.26,59.59,69.58,62.29,41.76Z"/><path class="cls-9" d="M90,67.73c-14.75.74-25.2-10.5-27.87-23.81C60.54,69.61,77.41,70.26,77.41,70.26c12.81,2.56,19.8-.85,23.54-6.1A23.24,23.24,0,0,1,90,67.73Z"/><path class="cls-4" d="M101,42.82s17-6.3,18.6-9.44c0,0,1,5.24,1,6.28S100.76,48,100.76,48,97.6,42.32,101,42.82Z"/><path class="cls-4" d="M87.67,63.75s24.61-1,36.13-13.61l-1-3.15s-14.13,11-26.7,11.52C96.05,58.51,85.05,60.61,87.67,63.75Z"/><path class="cls-10" d="M96.06,28.6s-11.3-4-15.76-1.81l-.23,2.68,15.77,2.19Z"/><polygon class="cls-10" points="69.6 25.65 69.39 28.72 64.04 28.63 64.25 25.56 69.6 25.65"/><rect class="cls-10" x="67.62" y="34.65" width="12.91" height="0.93" transform="translate(32.87 105.98) rotate(-85.18)"/><path class="cls-5" d="M80.25,37.76s5.2-6.08,12.08-.66C92.33,37.1,85.89,44.57,80.25,37.76Z"/><path class="cls-10" d="M83.41,37.33a2.63,2.63,0,1,0,2.48-2.51A2.5,2.5,0,0,0,83.41,37.33Z"/><path class="cls-10" d="M92.33,37.1s-7.2-3.25-12.08.66C80.25,37.76,85,30.83,92.33,37.1Z"/><g class="cls-11"><path class="cls-5" d="M57.69,35.91s5.31-5,11,.56C68.73,36.47,62.16,42.64,57.69,35.91Z"/><path class="cls-10" d="M63.22,36.16a2,2,0,1,0,2-1.67A1.87,1.87,0,0,0,63.22,36.16Z"/><path class="cls-10" d="M68.73,36.47s-6.23-3.64-11-.56C57.69,35.91,62.66,30.08,68.73,36.47Z"/></g><path class="cls-12" d="M98.66,32.91s17-2.8,18.68-8a24.5,24.5,0,0,1,1.2,5.82s-13.26,6.63-20.77,8.4Z"/><polygon class="cls-13" points="62.29 41.76 79.66 23.63 83.19 24.08 65.52 43.52 62.29 41.76"/><polygon class="cls-13" points="77.89 42.19 90.7 25.4 94.85 27.41 81.15 43.57 77.89 42.19"/><path class="cls-12" d="M97.33,26.18c-22.15-7.36-35.67-.73-35.67-.73C55.2,46.11,67.2,44.21,67.2,44.21a15.71,15.71,0,0,1,14-.64c8.18,6.72,14.35,1.06,14.35,1.06C104.37,36.78,97.33,26.18,97.33,26.18Zm-4,17.06S88,48.1,81,42.33a13.49,13.49,0,0,0-12,.55s-10.3,1.63-4.76-16.1c0,0,11.62-5.69,30.62.63C94.85,27.41,100.9,36.51,93.29,43.24Z"/><path class="cls-9" d="M83.18,110.65c1.23,0,2.49.07,3.79.07,15.09,0,34.44-2.8,57.43-11.91l-.68-1.72c-24.28,9.62-44.56,12.2-60.48,11.65.49-16,1.12-27.56,1.56-29.68a41.74,41.74,0,0,0,.64-8.2c-.62-.09-1.24-.21-1.86-.31a40.78,40.78,0,0,1-.6,8.13c-.5,2.42-1.14,14.09-1.63,30C55.74,107.35,42,98,41.76,97.82l-1.07,1.51c.38.27,9.46,6.58,26.87,9.72a106.85,106.85,0,0,0,13.74,1.53C80.16,149.73,80,212.34,85,228l1.77-.57c-4-12.65-4.39-55.38-4.24-79.73C82.61,134.44,82.86,121.59,83.18,110.65Z"/><g class="cls-8"><rect class="cls-4" x="5.45" y="75.12" width="17.13" height="1.86" transform="translate(-22.3 7.78) rotate(-17.57)"/></g><g class="cls-8"><path class="cls-4" d="M25.4,127.48c-2.37-8.28,5.53-14.61,5.87-14.87l1.15,1.46c-.07.06-7.26,5.83-5.24,12.9Z"/></g><polygon class="cls-14" points="244.27 264.17 267.6 263.62 251.49 201.41 244.27 264.17"/><path class="cls-5" d="M218.59,97.07S192,92.33,195.74,192.41v15.53s9.18,7.83,15.92.46S223.32,102.38,218.59,97.07Z"/><path class="cls-15" d="M209.38,210.26s1.39,5.58-3.81,5.58-8.31-.8-8.66-2,.35-4.38.35-4.38Z"/><path class="cls-7" d="M265.93,44.44c0-9.58-8.75-17.35-19.54-17.35s-19.55,7.77-19.55,17.35a15.7,15.7,0,0,0,.13,2c-.05.12-.09.25-.13.38l2.82,18.6s10.08,12.16,13.7,12.88,14.11.71,16.53-1.43c1.88-1.68,4.51-20.44,5.57-28.61A15.7,15.7,0,0,0,265.93,44.44Z"/><path class="cls-4" d="M265.12,27.53C266,18.37,252.57,20,252.57,20c-2.51-7.17-13-2.39-13-2.39-9.62-4.38-16.32,6.37-16.32,6.37-10.88,1.2-7.53,13.54-7.53,13.54-8.37,5.18,0,13.94,0,13.94-6.28,5.17,1.67,13.14,1.67,13.14.84,7.56,10.46,6.37,10.46,6.37,5-1.59.42-12.34.42-12.34,3.77-2.79.42-9.16.42-9.16,4.6-1.6,1.68-6.77,1.68-6.77,5-.4,6.27-9.56,6.27-9.56A6,6,0,0,0,245,30.31c3.72,3.27,7.05,2.26,8.78,1.29a3.33,3.33,0,0,1,1.2-.83l.07-.06v0a2.94,2.94,0,0,1,2.87.57c5,3.82,6.88,8.91,7.58,14.5a6.17,6.17,0,0,0,.85.42c3.35-1.59,2.09-3.58,2.09-3.58C273.91,36.29,265.12,27.53,265.12,27.53Z"/><path class="cls-7" d="M229.63,69.7l-.4,23.49s14.33,6,24.29.4l.4-22.3S231.22,62.93,229.63,69.7Z"/><path class="cls-16" d="M253.67,85l.25-13.69s-22.7-8.36-24.29-1.59l-.19,10.82C236.67,85.65,244.84,87.74,253.67,85Z"/><path class="cls-10" d="M229.23,93.19l-11.11,6.75,4.34,84s35.84,9.56,57.34-2.39l-6-84.81-19.18-6.07S247.55,100.36,229.23,93.19Z"/><path class="cls-10" d="M242.31,314.7l9.33-95,12.47,95h24c.22-32.09-7.84-132.92-7.84-132.92-2.26-5.6-54.21,0-54.21,0s-7.11,101.56-6.49,132.92Z"/><path class="cls-17" d="M274.79,314.7c-.76-2.79-1.55-5.58-2.3-8.37-3.88-14.31-7.8-28.63-11.26-43-2.48-10.34-4.83-20.73-7.92-30.89l10.8,82.3Z"/><path class="cls-18" d="M282.11,206.1c-.18-2.49-.36-4.85-.53-7h-56.7c-.14,2.19-.3,4.55-.46,7Z"/><path class="cls-5" d="M231.57,93.19,233.31,262l-33,1.65L212.11,100S227.16,89.26,231.57,93.19Z"/><path class="cls-5" d="M273.83,96.78a46.62,46.62,0,0,0-4.53-3.32c-3.34-1.09-6.82-1.88-10.24-2.75a3.63,3.63,0,0,0-1.46,1.85l25.46,170.82,16.21-5.47Z"/><path class="cls-5" d="M273.83,96.78s29.46,27.47,30.66,50.17c0,0-2.39,9.56-13.14,6s-23.1-37.83-23.1-37.83S263.47,96.78,273.83,96.78Z"/><path class="cls-10" d="M240.39,47.79l-.1.14c1.68,1.54,6.44,5.12,11,.86C251.3,48.79,242.94,48.68,240.39,47.79Z"/><path class="cls-10" d="M265.89,47.54c-3,.66-6.32,1.14-6.32,1.14a6.55,6.55,0,0,0,6,1.15A12.81,12.81,0,0,0,265.89,47.54Z"/><path class="cls-10" d="M236,43.36s8.61-2.45,13-1c0,0,1.66-1.46.34-2.45s-10.7-1.61-14.18,1.91C235.17,41.86,234.41,42.29,236,43.36Z"/><path class="cls-10" d="M266,40.12c-3-1-6.59-1.64-9-.51,0,0-.86.14.29,1.71a42.39,42.39,0,0,1,8.6,1.68C266,42,266,41.08,266,40.12Z"/><g class="cls-19"><rect class="cls-10" x="257.45" y="47.93" width="0.93" height="8.49" transform="translate(-5.18 57.21) rotate(-12.53)"/></g><path class="cls-5" d="M212.78,44.24s12,15.06,22.72,14.81c0,0-.31,2.55-1.23,2.55s-8.9,3.32-21.49-13.27C212.78,48.33,210.32,45.77,212.78,44.24Z"/><path class="cls-5" d="M217.41,64.56s16.25,10.8,23,12.64,1.23.62,1.23.62l.31,3.07S218.05,73.71,217.41,64.56Z"/><path class="cls-5" d="M236.54,57.93s22.41-4.74,29.54-.59c0,0,2.14,17-4.41,23.7,0,0-20.37,7.7-28.18-6.52C233.49,74.52,226.7,59.12,236.54,57.93Z"/><path class="cls-6" d="M252.3,80.09a28.84,28.84,0,0,1-20.5-10.77,32.59,32.59,0,0,0,1.69,5.2C241.3,88.74,261.67,81,261.67,81A13,13,0,0,0,264.26,77,21,21,0,0,1,252.3,80.09Z"/><polygon class="cls-5" points="229.05 88.56 223.53 93.48 231.82 98.7 236.73 93.48 229.05 88.56"/><polygon class="cls-5" points="253 89.49 259.14 99.62 262.52 91.33 255.15 87.64 253 89.49"/><g class="cls-20"><path class="cls-4" d="M265.84,145h0a.48.48,0,0,1-.44-.5l2.89-45-7.44-1.89,2.5-5.67a.46.46,0,0,1,.61-.23.47.47,0,0,1,.24.61L262.11,97l7.12,1.81-2.93,45.78A.47.47,0,0,1,265.84,145Z"/></g><path class="cls-7" d="M253.39,128.69s32.24,29,41.62,26.58,12.39-8.73,8.35-13.56-43.17-21.64-43.17-21.64Z"/><path class="cls-21" d="M279.5,145.4a151.18,151.18,0,0,1-15.41-7.64c10.28,8.29,25.06,19,30.92,17.51,5.7-1.5,9-4.4,9.87-7.54C297.75,152.06,286.6,148.31,279.5,145.4Z"/><g class="cls-20"><path class="cls-4" d="M232.71,143.91a.47.47,0,0,1-.45-.37l-9.55-43.32,4.82-2.07L223.2,93.8a.46.46,0,1,1,.65-.65l5.31,5.32-5.37,2.3,9.38,42.57a.48.48,0,0,1-.36.56Z"/></g><path class="cls-5" d="M266.9,122.73l-6.66-3.7c-.14-1.28-1.14-3.13-3-6.27-3.68-6.12-3.59-6.4-4.7-5.69s1.69,6.43,1.18,8c-.47-.43-.92-.81-1.32-1.12-2.11-1.87-10.45-9.17-11.09-8.18s-.35,2.55,8,8.84l-.58.56c-3.52-3.09-10.07-8.63-10.62-7.75-.75,1.19-.32,2.75,8.73,9.72-.18.19-.36.39-.53.59-3.25-2.8-8.58-7.21-9.08-6.43-.71,1.09-.38,2.48,7.39,8.4l-.5.66c-3-2.59-7.32-6.06-7.75-5.39-.66,1-.36,2.3,6.73,7.71.56.94,5.87,4,9.33,6l6.8,5.61Z"/><path class="cls-6" d="M278.23,112.94c.36,1.08,1.45,15.9,1.45,15.9l11.92,5.79Z"/><g class="cls-22"><rect class="cls-10" x="179.04" y="156.44" width="67.42" height="1.85" transform="translate(21.86 340.63) rotate(-80.32)"/></g><path class="cls-23" d="M229.71,198.59v0l-.25-.82a32.37,32.37,0,0,0-9.27,3.73l.77,1.85c.1.29.18.52.19.57-.54.43-2.26,2.29-2.1,8.29.19,7.14,0,7.35,1.29,7.27s1.7-6.43,2.89-7.5c.2.61.4,1.16.59,1.62.92,2.67,4.59,13.13,5.63,12.59s1.56-2.05-2.59-11.62l.79-.21c1.54,4.43,4.51,12.48,5.42,12,1.24-.67,1.64-2.23-2.81-12.76l.75-.25c1.45,4,3.92,10.5,4.74,10.07,1.15-.61,1.55-2-2.3-11l.76-.32c1.37,3.74,3.39,8.88,4.1,8.5,1.07-.56,1.44-1.82-2.07-10C236.21,209.18,231.22,201,229.71,198.59Z"/><path class="cls-10" d="M174.11,314.7c1.12-8.38,2.64-21.38,4.33-40.28l6.07,40.28H207.8c-1.34-17.56-5-60.58-9.88-81.33-6.26-26.44-39.66,3.48-45.92,16.7l-2.31,64.63Z"/><path class="cls-17" d="M175.67,302c.83-7.32,1.77-16.43,2.77-27.6L182.6,302h24.17c-1.76-20.67-4.89-51.91-8.85-68.65-6.26-26.44-39.66,3.48-45.92,16.7L150.15,302Z"/><path class="cls-3" d="M159.59,111.74l-14.76,6.89,14.76,50.67s16.73,7.87,30,0L197,116.66l-16.24-6.89Z"/><path class="cls-10" d="M160.58,95.51s0,14.75-1.48,18.2c0,0,14.27,5.9,21.15-1l-2.46-16.23S161.56,92.06,160.58,95.51Z"/><path class="cls-7" d="M170.44,40.42a22.39,22.39,0,0,0-22.93,21.82,20.43,20.43,0,0,0,.06,2.22h-.11s1.07,36.44,23.67,38c0,0,19.63,2,21.13-39.09A22.37,22.37,0,0,0,170.44,40.42Z"/><path class="cls-24" d="M162.46,83.39c-9.78-7.58-13.69-22.57-10-34.67a22.32,22.32,0,0,0-5,13.52,20.43,20.43,0,0,0,.06,2.22h-.11s1.07,36.44,23.67,38c0,0,11.34,1.13,17.44-16.37C181.31,90.86,170.48,89.62,162.46,83.39Z"/><path class="cls-5" d="M149,76.06c2.3,10.82,8,25.42,22.14,26.38,0,0,15.29,1.51,19.91-26.38Z"/><path class="cls-25" d="M167.66,98.27c-7.17-1.21-12.44-6.34-15.83-12.62,3.32,8.33,9.12,16.1,19.3,16.79,0,0,9.09.88,15.37-11.5C181.77,96.22,175.15,99.53,167.66,98.27Z"/><path class="cls-4" d="M190.37,80.06c9.36-3.22,5-17.26,5-17.26,2.63-9.07-5.26-16.09-5.26-16.09-2.64-11.7-17.55-10.82-17.55-10.82C162.87,31.21,154.1,40,154.1,40,142.69,42,143.86,53.44,143.86,53.44c-6.14,5-1.17,15.5-1.17,15.5-.29,11.41,7,11.7,7,11.7s2.63-.29.29-7c0,0,1.17-6.43-.87-9.65,0,0,2.92-4.68,2.34-8.19h0s4.09-4.1,4.68-7.61c0,0,7.89-.87,9.36-3.51,0,0,6.43,2.05,9.36,0,0,0,5,5.27,8.19,4.1,0,0,2,8.19,5.55,8.19,0,0-1.46,5,.88,8.19,0,0-3.51,11.41.88,14.92"/><path class="cls-3" d="M157.18,157.66S135,254.4,133,288.83c0,0,18.69,8.86,39.35,7.38s29.52-4.92,40.34-3.44,12.3-1.48,12.3-1.48L191.6,154.66Z"/><path class="cls-9" d="M224.49,289.14c-.77.17-1.55.32-2.33.46-23,4-51.34-4.29-63.66-25.42-8.37-14.35-8.51-33.11-7.26-49.16,1-12.28,3.09-24.4,5-36.54V161.59c-4.16,18.46-21.53,97-23.26,127.24,0,0,18.69,8.86,39.35,7.38s29.52-4.92,40.34-3.44,12.3-1.48,12.3-1.48Z"/><path class="cls-3" d="M196.62,116.65s13.14,6,20.18,38.55,16.42,30.3,13.61,43.15c0,0-9.39,6.89-13.14,3.68s-11.73-29.84-15-40.86-9.85-18.36-12.2-26.62S190.52,114.81,196.62,116.65Z"/><polygon class="cls-3" points="219.88 200.97 220.32 205.84 232.73 201.63 229.69 197.86 219.88 200.97"/><path class="cls-10" d="M164.18,72.13A7.48,7.48,0,0,0,160,70.89a6.09,6.09,0,0,0-2.09.46c-.34.11-.65.32-1,.46l-1,.6-.25.16-.18-.16a25.46,25.46,0,0,1-2.13-2,23.77,23.77,0,0,1,2.55,1.47h-.43a7.41,7.41,0,0,1,2-1.35A5.83,5.83,0,0,1,160,70a5.5,5.5,0,0,1,4.23,2.12Z"/><path class="cls-10" d="M175.18,71.64a7.48,7.48,0,0,1,4.23-1.24,5.86,5.86,0,0,1,2.09.46,9.82,9.82,0,0,1,1,.46l.95.59.26.16.17-.15a25.46,25.46,0,0,0,2.13-2,23.77,23.77,0,0,0-2.55,1.47h.43a7.41,7.41,0,0,0-2-1.35,5.68,5.68,0,0,0-2.44-.5,5.5,5.5,0,0,0-4.23,2.12Z"/><path class="cls-10" d="M152.48,66.87s5-2.34,9.66-1.76V63.65S156,61.31,152.48,66.87Z"/><path class="cls-10" d="M186.22,65.42s-5.1-2.05-9.74-1.2l-.08-1.46S182.4,60.07,186.22,65.42Z"/><path class="cls-26" d="M141.81,55.49l2.64,48.26s22.81,10.24,52.06-2.63l-1.46-48.56Z"/><path class="cls-26" d="M169.09,89.34q10.33-11.78,21.17-23.11c1.67-1.75,3.36-3.47,5-5.21l-.25-8.46-5.63.31c-14.89,16.36-29.63,32.88-45.09,48.69l.12,2.19a46.14,46.14,0,0,0,9.17,2.64C159.45,101.4,164,95.1,169.09,89.34Z"/><path class="cls-26" d="M168.45,107.58Q182.22,92.7,195.8,77.65l-.18-6.27c-.44.46-.88.91-1.31,1.37-7.43,7.84-14.83,15.75-21.83,24-3.13,3.68-6.16,7.36-9.45,10.79C164.74,107.61,166.55,107.63,168.45,107.58Z"/><path class="cls-27" d="M143.28,51.1s29.54,4.39,48.55-4.39c0,0,3.22,2.93,3.22,5.85,0,0-22.52,11.41-53.24,2.93C141.81,55.49,141.23,51.68,143.28,51.1Z"/><path class="cls-28" d="M193.05,51.54a127.29,127.29,0,0,1-14.48,3.24,86.41,86.41,0,0,1-36.82-.88,8.59,8.59,0,0,0,.06,1.59c30.72,8.48,53.24-2.93,53.24-2.93a4.87,4.87,0,0,0-.28-1.55Z"/><path class="cls-29" d="M141.81,55.49l2.64,48.26s12.46,5.06,24,3.83l-20.67-5.12Z"/><path class="cls-30" d="M116.37,200.37v-.05l.22-.83a32.47,32.47,0,0,1,9.4,3.4l-.7,1.87-.18.57c.57.42,2.35,2.21,2.41,8.22.07,7.14.29,7.34-1,7.31s-1.93-6.36-3.17-7.39c-.17.61-.35,1.17-.53,1.64-.82,2.7-4.11,13.29-5.16,12.78-1.2-.58-1.64-2,2.16-11.7L119,216c-1.39,4.48-4.06,12.63-5,12.17-1.26-.62-1.71-2.17,2.35-12.86l-.77-.21c-1.3,4.08-3.53,10.63-4.36,10.23-1.18-.57-1.62-1.92,1.9-11l-.78-.29c-1.23,3.79-3.06,9-3.78,8.65-1.09-.52-1.51-1.77,1.7-10.1C110.27,211.18,115,202.85,116.37,200.37Z"/><polygon class="cls-3" points="126.29 202.38 126.02 207.27 113.46 203.51 116.36 199.63 126.29 202.38"/><path class="cls-3" d="M147,117.3s-12.91,6.44-18.76,39.27-15.31,30.87-12,43.61c0,0,9.63,6.54,13.26,3.19S140.11,173.13,143,162s9.18-18.71,11.22-27.05S153,115.24,147,117.3Z"/><path class="cls-31" d="M193.32,143.46h-.1a.47.47,0,0,1-.35-.56l2.22-9.44a.47.47,0,0,1,.56-.34.48.48,0,0,1,.35.56l-2.23,9.44A.46.46,0,0,1,193.32,143.46Z"/><path class="cls-31" d="M170.83,119.83a21.91,21.91,0,0,0,15.59-6.49.45.45,0,0,0,0-.65.46.46,0,0,0-.66,0c-13.44,12.9-29.79,1.73-30,1.62a.45.45,0,0,0-.64.11.47.47,0,0,0,.11.65A30.39,30.39,0,0,0,170.83,119.83Z"/><path class="cls-31" d="M151.67,144.58h.08a.46.46,0,0,0,.38-.53l-1.67-10a.46.46,0,0,0-.53-.38.45.45,0,0,0-.38.53l1.66,10A.47.47,0,0,0,151.67,144.58Z"/><path class="cls-31" d="M204.9,270.84a46.51,46.51,0,0,1-24.34-2.44L173.2,147.46a5.73,5.73,0,0,1,4.27,1.44.46.46,0,1,0,.61-.69,6.6,6.6,0,0,0-4.94-1.68l-1.57-25.77a.46.46,0,0,0-.49-.44.47.47,0,0,0-.44.49l1.58,25.83a12,12,0,0,0-4.73,2.11.45.45,0,0,0-.08.65.48.48,0,0,0,.37.17.46.46,0,0,0,.29-.1,11,11,0,0,1,4.2-1.9L179.61,268c-17.63-6.81-29.63-21.27-29.8-21.48a.47.47,0,0,0-.72.59c.17.21,12.49,15.06,30.58,21.9l1.53,25a.46.46,0,0,0,.46.44h0a.47.47,0,0,0,.43-.49l-1.5-24.63a49.4,49.4,0,0,0,16.7,3,44,44,0,0,0,7.75-.69.46.46,0,1,0-.17-.91Z"/><path class="cls-31" d="M170.67,274.73a29,29,0,0,1-16.93-12,.46.46,0,1,0-.81.45,30,30,0,0,0,17.5,12.44l.12,0a.47.47,0,0,0,.12-.92Z"/><path class="cls-31" d="M125.82,201.83l-10-2.4a.47.47,0,1,0-.21.91l10,2.39h.11a.46.46,0,0,0,.11-.91Z"/><path class="cls-31" d="M230.14,197.72a.47.47,0,0,0-.58-.3l-9.82,3.1a.47.47,0,0,0-.31.58.48.48,0,0,0,.45.33l.14,0,9.82-3.11A.46.46,0,0,0,230.14,197.72Z"/></g></g></g></svg>