<svg height="512" viewBox="0 0 64 64" width="512" xmlns="http://www.w3.org/2000/svg"><g id="Vaccination"><path d="m49.21 44.02-13.62-2.92-3.46-4.8a12 12 0 0 0 5.82-9.3h1.05a3.009 3.009 0 0 0 3-3v-2a2.992 2.992 0 0 0 -2.62-2.96l1.16-1.16a4.994 4.994 0 0 0 1.46-3.54v-1.34a11.007 11.007 0 0 0 -11-11h-10a11.007 11.007 0 0 0 -11 11v1.34a4.994 4.994 0 0 0 1.46 3.54l1.16 1.16a2.992 2.992 0 0 0 -2.62 2.96v2a3.009 3.009 0 0 0 3 3h1.05a12 12 0 0 0 5.82 9.3l-3.46 4.8-13.62 2.92a1 1 0 0 0 -.79.98v12a1.008 1.008 0 0 0 .83.99l23 4a1.45 1.45 0 0 0 .34 0l23-4a1.008 1.008 0 0 0 .83-.99v-12a1 1 0 0 0 -.79-.98zm-9.21-22.02v2a1 1 0 0 1 -1 1h-1v-4h1a1 1 0 0 1 1 1zm-26 3h-1a1 1 0 0 1 -1-1v-2a1 1 0 0 1 1-1h1zm0-10v2.59l-1.12-1.13a3 3 0 0 1 -.88-2.12v-1.34a9.014 9.014 0 0 1 9-9h10a9.014 9.014 0 0 1 9 9v1.34a3 3 0 0 1 -.88 2.12l-1.12 1.13v-2.59a1 1 0 0 0 -.74-.97l-15-4a1.055 1.055 0 0 0 -.76.1l-7 4a1 1 0 0 0 -.5.87zm2 11v-10.42l6.14-3.51 13.86 3.7v10.23a10 10 0 0 1 -20 0zm5.7 11.19a11.819 11.819 0 0 0 8.6 0l3.09 4.29-7.39 2.47-7.39-2.47zm10.34 6.85-6.04 7.38-6.04-7.38 5.72 1.91a1 1 0 0 0 .64 0zm9.96 13.16-6 1.05v-5.25h6zm6-1.04-4 .69v-4.85a1 1 0 0 0 -1-1h-8a1 1 0 0 0 -1 1v6.59l-8 1.39-22-3.82v-10.35l12.61-2.7 8.62 10.52a.986.986 0 0 0 1.54 0l8.62-10.52 12.61 2.7z"/><path d="m43.866 38.5 2.5-4.33.866.5a1 1 0 0 0 1.368-.37l1.5-2.6.866.5a1 1 0 0 0 .5.134.99.99 0 0 0 .259-.034 1 1 0 0 0 .607-.466l8-13.857a1 1 0 0 0 -.366-1.366l-2.6-1.5 1-1.732 1.732 1 1-1.732-5.2-3-1 1.732 1.732 1-1 1.732-2.6-1.5a1 1 0 0 0 -1.366.366l-8 13.857a1 1 0 0 0 .366 1.366l.865.5-1.5 2.6a1 1 0 0 0 .367 1.366l.866.5-2.5 4.33zm9.034-23.65 5.2 3-1 1.731-2.6-1.5-1 1.732 2.6 1.5-1 1.732-2.6-1.5-1 1.733 2.6 1.5-1 1.731-2.6-1.5-1 1.733 2.6 1.5-1 1.732-.864-.5-1.732-1-2.6-1.5zm-4.534 15.856-1 1.732-1.732-1 1-1.732z"/><path d="m49.707 36.293-1.414 1.414 4 4a1 1 0 0 0 .707.293h9v-2h-8.586z"/><path d="m52 44h2v2h-2z"/><path d="m56 44h6v2h-6z"/><path d="m52 48h10v2h-10z"/><path d="m34.555 20.832-1.11-1.664a4.4 4.4 0 0 1 -4.89 0l-1.11 1.664a6.391 6.391 0 0 0 7.11 0z"/><path d="m18.555 19.168-1.11 1.664a6.391 6.391 0 0 0 7.11 0l-1.11-1.664a4.4 4.4 0 0 1 -4.89 0z"/><path d="m6 49h2v2h-2z"/><path d="m10 49h8v2h-8z"/><path d="m56 36h6v2h-6z"/></g></svg>